<?xml version="1.0" encoding="utf-8"?>
<!-- Generator: Adobe Illustrator 28.3.0, SVG Export Plug-In . SVG Version: 6.00 Build 0)  -->
<svg version="1.1" id="Warstwa_1" xmlns="http://www.w3.org/2000/svg" xmlns:xlink="http://www.w3.org/1999/xlink" x="0px" y="0px"
	 viewBox="0 0 841.89 595.28" style="enable-background:new 0 0 841.89 595.28;" xml:space="preserve">
<style type="text/css">
	.st0{fill:#FBBA0E;}
	.st1{fill:#FBB912;}
	.st2{fill:#FFFFFF;}
	.st3{fill:#F6F6F6;}
	.st4{fill:#CC1336;}
</style>
<rect y="-615.28" class="st0" width="841.89" height="595.28"/>
<g>
	<path class="st1" d="M1130.22,123.57h-72.16c-6.51,0-11.8-5.28-11.8-11.8V39.61c0-6.51,5.28-11.8,11.8-11.8h72.16
		c6.51,0,11.8,5.28,11.8,11.8v72.16C1142.02,118.29,1136.74,123.57,1130.22,123.57z"/>
	<path class="st1" d="M1215.18,47.81h-39.3c-0.95,0-2.07,0.28-3.34,0.84c-1.27,0.56-2.47,1.26-3.58,2.11
		c-1.11,0.85-2.07,1.79-2.86,2.82c-0.8,1.03-1.19,2.03-1.19,2.98v38.26c0,1.06,0.33,2.11,0.99,3.14c0.66,1.03,1.5,1.98,2.51,2.82
		c1.01,0.85,2.08,1.52,3.22,2.03c1.14,0.5,2.19,0.76,3.14,0.76h40.41c0.66,0,1.19-0.53,1.19-1.19v-11.3c0-0.66-0.53-1.19-1.19-1.19
		h-34.85c-0.66,0-1.19-0.53-1.19-1.19V63.71c0-0.66,0.53-1.19,1.19-1.19h34.85c0.66,0,1.19-0.53,1.19-1.19V49
		C1216.37,48.34,1215.83,47.81,1215.18,47.81z"/>
	<path class="st1" d="M1277.22,49c0-0.66-0.53-1.19-1.19-1.19h-12.02c-0.66,0-1.19,0.53-1.19,1.19v20.69h-4.37h-12.24h-8.45
		c-0.66,0-1.19-0.53-1.19-1.19V49c0-0.66-0.53-1.19-1.19-1.19h-11.94c-0.66,0-1.19,0.53-1.19,1.19v24.98c0,1.06,0.33,2.12,0.99,3.18
		c0.66,1.06,1.5,2,2.51,2.82c1.01,0.82,2.08,1.5,3.22,2.03c1.14,0.53,2.19,0.8,3.14,0.8h14.1h12.24h4.37"/>
	<path class="st1" d="M1330.95,50.55c-1.03-0.82-2.12-1.48-3.26-1.99c-1.14-0.5-2.11-0.76-2.9-0.76h-40.49
		c-0.66,0-1.19,0.53-1.19,1.19v53.38c0,0.66,0.53,1.19,1.19,1.19h40.49c0.8,0,1.76-0.25,2.9-0.76c1.14-0.5,2.23-1.17,3.26-1.99
		c1.03-0.82,1.92-1.76,2.66-2.82c0.74-1.06,1.11-2.12,1.11-3.18V79.94c0-0.74-0.35-1.47-1.03-2.19c-0.48-0.5-0.92-1-1.32-1.51
		c-0.32-0.41-0.34-0.97-0.06-1.4c0.42-0.65,0.88-1.3,1.39-1.94c0.69-0.87,1.03-1.68,1.03-2.43V56.56c0-1.06-0.37-2.12-1.11-3.18
		C1332.87,52.32,1331.99,51.37,1330.95,50.55z M1320.41,68.49c0,0.66-0.53,1.19-1.19,1.19h-17.35c-0.66,0-1.19,0.53-1.19,1.19v10.75
		c0,0.66,0.53,1.19,1.19,1.19h17.35c0.66,0,1.19,0.53,1.19,1.19v4.7c0,0.66-0.53,1.19-1.19,1.19h-20.61c-0.66,0-1.19-0.53-1.19-1.19
		V62.68c0-0.66,0.53-1.19,1.19-1.19h20.61c0.66,0,1.19,0.53,1.19,1.19V68.49z"/>
	<path class="st1" d="M1390.89,47.81h-39.3c-0.95,0-2.07,0.28-3.34,0.84c-1.27,0.56-2.47,1.26-3.58,2.11
		c-1.11,0.85-2.07,1.79-2.86,2.82c-0.8,1.03-1.19,2.03-1.19,2.98v38.26c0,1.06,0.33,2.11,0.99,3.14c0.66,1.03,1.5,1.98,2.51,2.82
		c1.01,0.85,2.08,1.52,3.22,2.03c1.14,0.5,2.19,0.76,3.14,0.76h40.41c0.66,0,1.19-0.53,1.19-1.19v-11.3c0-0.66-0.53-1.19-1.19-1.19
		h-34.85c-0.66,0-1.19-0.53-1.19-1.19V63.71c0-0.66,0.53-1.19,1.19-1.19h34.85c0.66,0,1.19-0.53,1.19-1.19V49
		C1392.08,48.34,1391.55,47.81,1390.89,47.81z"/>
	<path class="st1" d="M1359.3,69.68c-0.66,0-1.19,0.53-1.19,1.19v10.75c0,0.66,0.53,1.19,1.19,1.19h28.25
		c0.66,0,1.19-0.53,1.19-1.19V70.87c0-0.66-0.53-1.19-1.19-1.19H1359.3z"/>
	<path class="st1" d="M1448.92,50.55c-1.03-0.82-2.14-1.48-3.3-1.99c-1.17-0.5-2.15-0.76-2.94-0.76h-43.52
		c-0.66,0-1.19,0.53-1.19,1.19v53.38c0,0.66,0.53,1.19,1.19,1.19h11.94c0.66,0,1.19-0.53,1.19-1.19v-39.7
		c0-0.66,0.53-1.19,1.19-1.19h23.63c0.66,0,1.19,0.53,1.19,1.19v5.82c0,0.66-0.53,1.19-1.19,1.19h-20.37
		c-0.66,0-1.19,0.53-1.19,1.19v10.75c0,0.66,0.53,1.19,1.19,1.19h7.91c0.42,0,0.81,0.22,1.03,0.59l11.48,19.59
		c0.21,0.36,0.6,0.59,1.03,0.59h12.53c0.9,0,1.47-0.96,1.05-1.75l-9.2-17.27c-0.42-0.79,0.15-1.75,1.05-1.75
		c0.06,0,0.12,0,0.17-0.01c0.93-0.12,1.91-0.44,2.94-0.98c1.06-0.56,2.03-1.25,2.9-2.07c0.88-0.82,1.6-1.74,2.19-2.74
		c0.58-1.01,0.87-2.02,0.87-3.02V56.56c0-1.06-0.37-2.12-1.11-3.18C1450.84,52.32,1449.95,51.37,1448.92,50.55z"/>
	<path class="st1" d="M1473.5,63.6c0.08-0.72,0.38-1.07,0.91-1.07h23.75c0.23,0,0.46,0.06,0.65,0.19c0.4,0.29,0.76,0.63,1.06,1.04
		c0.22,0.3,0.41,0.6,0.58,0.91c0.21,0.39,0.61,0.64,1.05,0.64h11.18c0.66,0,1.19-0.53,1.19-1.19v-1.36c0-1.75-0.2-3.51-0.6-5.29
		c-0.4-1.78-1.03-3.38-1.91-4.81c-0.87-1.43-1.99-2.6-3.34-3.5c-1.35-0.9-2.96-1.35-4.81-1.35h-31.9c-1.8,0-3.45,0.29-4.93,0.88
		c-1.49,0.58-2.76,1.31-3.82,2.19c-1.06,0.87-1.88,1.83-2.47,2.86c-0.58,1.03-0.87,1.98-0.87,2.82v17.5c0,0.9,0.42,1.86,1.27,2.86
		c0.85,1.01,1.86,1.95,3.02,2.82c1.17,0.88,2.37,1.6,3.62,2.19c1.25,0.58,2.24,0.88,2.98,0.88h28.48c0.48,0,0.8,0.24,0.95,0.72
		c0.16,0.48,0.24,0.98,0.24,1.51v2.94c0,0.43-0.05,0.85-0.16,1.27c-0.11,0.42-0.45,0.64-1.03,0.64h-23.75
		c-0.23,0-0.46-0.06-0.65-0.19c-0.53-0.36-0.89-0.74-1.09-1.12c-0.13-0.25-0.27-0.51-0.42-0.77c-0.21-0.38-0.61-0.62-1.04-0.62
		h-11.83c-0.68,0-1.23,0.56-1.19,1.24c0.06,1.2,0.21,2.5,0.44,3.89c0.32,1.88,0.87,3.66,1.67,5.33c0.8,1.67,1.88,3.08,3.26,4.22
		c1.38,1.14,3.1,1.71,5.17,1.71h34.05c1.38,0,2.72-0.24,4.02-0.72c1.3-0.48,2.44-1.11,3.42-1.91c0.98-0.8,1.76-1.72,2.35-2.78
		c0.58-1.06,0.88-2.17,0.88-3.34V78.43c0-0.74-0.31-1.62-0.92-2.62c-0.61-1.01-1.35-1.96-2.23-2.86c-0.88-0.9-1.8-1.67-2.78-2.31
		c-0.98-0.64-1.87-0.95-2.66-0.95h-29.51c-0.58,0-1.03-0.13-1.35-0.4c-0.32-0.27-0.56-0.6-0.72-0.99c-0.16-0.4-0.25-0.81-0.28-1.23
		c-0.03-0.42-0.04-0.8-0.04-1.11v-0.64C1473.38,64.88,1473.42,64.31,1473.5,63.6z"/>
	<g>
		<path class="st2" d="M1106.6,35.89h-40.83c-0.99,0-2.15,0.29-3.47,0.87c-1.32,0.58-2.56,1.31-3.72,2.19
			c-1.16,0.88-2.15,1.86-2.97,2.93c-0.83,1.07-1.24,2.11-1.24,3.1v39.75c0,1.1,0.34,2.19,1.03,3.26c0.69,1.07,1.56,2.05,2.6,2.93
			c1.05,0.88,2.16,1.58,3.35,2.11c1.18,0.52,2.27,0.79,3.26,0.79h41.98c0.68,0,1.24-0.55,1.24-1.24V80.84
			c0-0.68-0.55-1.24-1.24-1.24h-36.2c-0.68,0-1.23-0.55-1.23-1.24V52.41c0-0.68,0.55-1.24,1.23-1.24h36.2
			c0.68,0,1.24-0.55,1.24-1.24V37.13C1107.84,36.44,1107.29,35.89,1106.6,35.89z"/>
		<path class="st2" d="M1127.47,51.48h-8.05c-2.06,0-3.73-1.67-3.73-3.73v-8.05c0-2.06,1.67-3.73,3.73-3.73h8.05
			c2.06,0,3.73,1.67,3.73,3.73v8.05C1131.19,49.81,1129.52,51.48,1127.47,51.48z"/>
		<path class="st2" d="M1078.96,115.49h40.83c0.99,0,2.15-0.29,3.47-0.87c1.32-0.58,2.56-1.31,3.72-2.19
			c1.16-0.88,2.15-1.86,2.97-2.93c0.83-1.07,1.24-2.11,1.24-3.1V66.65c0-1.1-0.34-2.19-1.03-3.26c-0.69-1.07-1.56-2.05-2.6-2.93
			c-1.05-0.88-2.16-1.58-3.35-2.11c-1.18-0.52-2.27-0.79-3.26-0.79h-41.98c-0.68,0-1.23,0.55-1.23,1.24v11.74
			c0,0.68,0.55,1.24,1.23,1.24h36.2c0.68,0,1.23,0.55,1.23,1.24v25.96c0,0.68-0.55,1.24-1.23,1.24h-36.2
			c-0.68,0-1.23,0.55-1.23,1.24v12.82C1077.73,114.93,1078.28,115.49,1078.96,115.49z"/>
		<path class="st2" d="M1066.15,115.49h-8.05c-2.06,0-3.73-1.67-3.73-3.73v-8.05c0-2.06,1.67-3.73,3.73-3.73h8.05
			c2.06,0,3.73,1.67,3.73,3.73v8.05C1069.88,113.82,1068.21,115.49,1066.15,115.49z"/>
	</g>
	<path class="st1" d="M1222.25,49c0-0.66,0.53-1.19,1.19-1.19h12.02c0.66,0,1.19,0.53,1.19,1.19v20.69h4.37h12.24h8.45
		c0.66,0,1.19-0.53,1.19-1.19V49c0-0.66,0.53-1.19,1.19-1.19h11.94c0.66,0,1.19,0.53,1.19,1.19v24.98c0,1.06-0.33,2.12-0.99,3.18
		c-0.66,1.06-1.5,2-2.51,2.82c-1.01,0.82-2.08,1.5-3.22,2.03c-1.14,0.53-2.19,0.8-3.14,0.8h-14.1h-12.24h-4.37"/>
	<path class="st1" d="M1253.74,105.1h-7.1c-1.94,0-3.51-1.57-3.51-3.51v-28.4c0-1.94,1.57-3.51,3.51-3.51h7.1
		c1.94,0,3.51,1.57,3.51,3.51v28.4C1257.24,103.53,1255.67,105.1,1253.74,105.1z"/>
	<path class="st1" d="M1130.22,123.57h-72.16c-6.51,0-11.8-5.28-11.8-11.8V39.61c0-6.51,5.28-11.8,11.8-11.8h72.16
		c6.51,0,11.8,5.28,11.8,11.8v72.16C1142.02,118.29,1136.74,123.57,1130.22,123.57z"/>
	<path class="st1" d="M1215.18,47.81h-39.3c-0.95,0-2.07,0.28-3.34,0.84c-1.27,0.56-2.47,1.26-3.58,2.11
		c-1.11,0.85-2.07,1.79-2.86,2.82c-0.8,1.03-1.19,2.03-1.19,2.98v38.26c0,1.06,0.33,2.11,0.99,3.14c0.66,1.03,1.5,1.98,2.51,2.82
		c1.01,0.85,2.08,1.52,3.22,2.03c1.14,0.5,2.19,0.76,3.14,0.76h40.41c0.66,0,1.19-0.53,1.19-1.19v-11.3c0-0.66-0.53-1.19-1.19-1.19
		h-34.85c-0.66,0-1.19-0.53-1.19-1.19V63.71c0-0.66,0.53-1.19,1.19-1.19h34.85c0.66,0,1.19-0.53,1.19-1.19V49
		C1216.37,48.34,1215.83,47.81,1215.18,47.81z"/>
	<path class="st1" d="M1277.22,49c0-0.66-0.53-1.19-1.19-1.19h-12.02c-0.66,0-1.19,0.53-1.19,1.19v20.69h-4.37h-12.24h-8.45
		c-0.66,0-1.19-0.53-1.19-1.19V49c0-0.66-0.53-1.19-1.19-1.19h-11.94c-0.66,0-1.19,0.53-1.19,1.19v24.98c0,1.06,0.33,2.12,0.99,3.18
		c0.66,1.06,1.5,2,2.51,2.82c1.01,0.82,2.08,1.5,3.22,2.03c1.14,0.53,2.19,0.8,3.14,0.8h14.1h12.24h4.37"/>
	<path class="st1" d="M1330.95,50.55c-1.03-0.82-2.12-1.48-3.26-1.99c-1.14-0.5-2.11-0.76-2.9-0.76h-40.49
		c-0.66,0-1.19,0.53-1.19,1.19v53.38c0,0.66,0.53,1.19,1.19,1.19h40.49c0.8,0,1.76-0.25,2.9-0.76c1.14-0.5,2.23-1.17,3.26-1.99
		c1.03-0.82,1.92-1.76,2.66-2.82c0.74-1.06,1.11-2.12,1.11-3.18V79.94c0-0.74-0.35-1.47-1.03-2.19c-0.48-0.5-0.92-1-1.32-1.51
		c-0.32-0.41-0.34-0.97-0.06-1.4c0.42-0.65,0.88-1.3,1.39-1.94c0.69-0.87,1.03-1.68,1.03-2.43V56.56c0-1.06-0.37-2.12-1.11-3.18
		C1332.87,52.32,1331.99,51.37,1330.95,50.55z M1320.41,68.49c0,0.66-0.53,1.19-1.19,1.19h-17.35c-0.66,0-1.19,0.53-1.19,1.19v10.75
		c0,0.66,0.53,1.19,1.19,1.19h17.35c0.66,0,1.19,0.53,1.19,1.19v4.7c0,0.66-0.53,1.19-1.19,1.19h-20.61c-0.66,0-1.19-0.53-1.19-1.19
		V62.68c0-0.66,0.53-1.19,1.19-1.19h20.61c0.66,0,1.19,0.53,1.19,1.19V68.49z"/>
	<path class="st1" d="M1390.89,47.81h-39.3c-0.95,0-2.07,0.28-3.34,0.84c-1.27,0.56-2.47,1.26-3.58,2.11
		c-1.11,0.85-2.07,1.79-2.86,2.82c-0.8,1.03-1.19,2.03-1.19,2.98v38.26c0,1.06,0.33,2.11,0.99,3.14c0.66,1.03,1.5,1.98,2.51,2.82
		c1.01,0.85,2.08,1.52,3.22,2.03c1.14,0.5,2.19,0.76,3.14,0.76h40.41c0.66,0,1.19-0.53,1.19-1.19v-11.3c0-0.66-0.53-1.19-1.19-1.19
		h-34.85c-0.66,0-1.19-0.53-1.19-1.19V63.71c0-0.66,0.53-1.19,1.19-1.19h34.85c0.66,0,1.19-0.53,1.19-1.19V49
		C1392.08,48.34,1391.55,47.81,1390.89,47.81z"/>
	<path class="st1" d="M1359.3,69.68c-0.66,0-1.19,0.53-1.19,1.19v10.75c0,0.66,0.53,1.19,1.19,1.19h28.25
		c0.66,0,1.19-0.53,1.19-1.19V70.87c0-0.66-0.53-1.19-1.19-1.19H1359.3z"/>
	<path class="st1" d="M1448.92,50.55c-1.03-0.82-2.14-1.48-3.3-1.99c-1.17-0.5-2.15-0.76-2.94-0.76h-43.52
		c-0.66,0-1.19,0.53-1.19,1.19v53.38c0,0.66,0.53,1.19,1.19,1.19h11.94c0.66,0,1.19-0.53,1.19-1.19v-39.7
		c0-0.66,0.53-1.19,1.19-1.19h23.63c0.66,0,1.19,0.53,1.19,1.19v5.82c0,0.66-0.53,1.19-1.19,1.19h-20.37
		c-0.66,0-1.19,0.53-1.19,1.19v10.75c0,0.66,0.53,1.19,1.19,1.19h7.91c0.42,0,0.81,0.22,1.03,0.59l11.48,19.59
		c0.21,0.36,0.6,0.59,1.03,0.59h12.53c0.9,0,1.47-0.96,1.05-1.75l-9.2-17.27c-0.42-0.79,0.15-1.75,1.05-1.75
		c0.06,0,0.12,0,0.17-0.01c0.93-0.12,1.91-0.44,2.94-0.98c1.06-0.56,2.03-1.25,2.9-2.07c0.88-0.82,1.6-1.74,2.19-2.74
		c0.58-1.01,0.87-2.02,0.87-3.02V56.56c0-1.06-0.37-2.12-1.11-3.18C1450.84,52.32,1449.95,51.37,1448.92,50.55z"/>
	<path class="st1" d="M1473.5,63.6c0.08-0.72,0.38-1.07,0.91-1.07h23.75c0.23,0,0.46,0.06,0.65,0.19c0.4,0.29,0.76,0.63,1.06,1.04
		c0.22,0.3,0.41,0.6,0.58,0.91c0.21,0.39,0.61,0.64,1.05,0.64h11.18c0.66,0,1.19-0.53,1.19-1.19v-1.36c0-1.75-0.2-3.51-0.6-5.29
		c-0.4-1.78-1.03-3.38-1.91-4.81c-0.87-1.43-1.99-2.6-3.34-3.5c-1.35-0.9-2.96-1.35-4.81-1.35h-31.9c-1.8,0-3.45,0.29-4.93,0.88
		c-1.49,0.58-2.76,1.31-3.82,2.19c-1.06,0.87-1.88,1.83-2.47,2.86c-0.58,1.03-0.87,1.98-0.87,2.82v17.5c0,0.9,0.42,1.86,1.27,2.86
		c0.85,1.01,1.86,1.95,3.02,2.82c1.17,0.88,2.37,1.6,3.62,2.19c1.25,0.58,2.24,0.88,2.98,0.88h28.48c0.48,0,0.8,0.24,0.95,0.72
		c0.16,0.48,0.24,0.98,0.24,1.51v2.94c0,0.43-0.05,0.85-0.16,1.27c-0.11,0.42-0.45,0.64-1.03,0.64h-23.75
		c-0.23,0-0.46-0.06-0.65-0.19c-0.53-0.36-0.89-0.74-1.09-1.12c-0.13-0.25-0.27-0.51-0.42-0.77c-0.21-0.38-0.61-0.62-1.04-0.62
		h-11.83c-0.68,0-1.23,0.56-1.19,1.24c0.06,1.2,0.21,2.5,0.44,3.89c0.32,1.88,0.87,3.66,1.67,5.33c0.8,1.67,1.88,3.08,3.26,4.22
		c1.38,1.14,3.1,1.71,5.17,1.71h34.05c1.38,0,2.72-0.24,4.02-0.72c1.3-0.48,2.44-1.11,3.42-1.91c0.98-0.8,1.76-1.72,2.35-2.78
		c0.58-1.06,0.88-2.17,0.88-3.34V78.43c0-0.74-0.31-1.62-0.92-2.62c-0.61-1.01-1.35-1.96-2.23-2.86c-0.88-0.9-1.8-1.67-2.78-2.31
		c-0.98-0.64-1.87-0.95-2.66-0.95h-29.51c-0.58,0-1.03-0.13-1.35-0.4c-0.32-0.27-0.56-0.6-0.72-0.99c-0.16-0.4-0.25-0.81-0.28-1.23
		c-0.03-0.42-0.04-0.8-0.04-1.11v-0.64C1473.38,64.88,1473.42,64.31,1473.5,63.6z"/>
	<g>
		<path class="st2" d="M1106.6,35.89h-40.83c-0.99,0-2.15,0.29-3.47,0.87c-1.32,0.58-2.56,1.31-3.72,2.19
			c-1.16,0.88-2.15,1.86-2.97,2.93c-0.83,1.07-1.24,2.11-1.24,3.1v39.75c0,1.1,0.34,2.19,1.03,3.26c0.69,1.07,1.56,2.05,2.6,2.93
			c1.05,0.88,2.16,1.58,3.35,2.11c1.18,0.52,2.27,0.79,3.26,0.79h41.98c0.68,0,1.24-0.55,1.24-1.24V80.84
			c0-0.68-0.55-1.24-1.24-1.24h-36.2c-0.68,0-1.23-0.55-1.23-1.24V52.41c0-0.68,0.55-1.24,1.23-1.24h36.2
			c0.68,0,1.24-0.55,1.24-1.24V37.13C1107.84,36.44,1107.29,35.89,1106.6,35.89z"/>
		<path class="st2" d="M1127.47,51.48h-8.05c-2.06,0-3.73-1.67-3.73-3.73v-8.05c0-2.06,1.67-3.73,3.73-3.73h8.05
			c2.06,0,3.73,1.67,3.73,3.73v8.05C1131.19,49.81,1129.52,51.48,1127.47,51.48z"/>
		<path class="st2" d="M1078.96,115.49h40.83c0.99,0,2.15-0.29,3.47-0.87c1.32-0.58,2.56-1.31,3.72-2.19
			c1.16-0.88,2.15-1.86,2.97-2.93c0.83-1.07,1.24-2.11,1.24-3.1V66.65c0-1.1-0.34-2.19-1.03-3.26c-0.69-1.07-1.56-2.05-2.6-2.93
			c-1.05-0.88-2.16-1.58-3.35-2.11c-1.18-0.52-2.27-0.79-3.26-0.79h-41.98c-0.68,0-1.23,0.55-1.23,1.24v11.74
			c0,0.68,0.55,1.24,1.23,1.24h36.2c0.68,0,1.23,0.55,1.23,1.24v25.96c0,0.68-0.55,1.24-1.23,1.24h-36.2
			c-0.68,0-1.23,0.55-1.23,1.24v12.82C1077.73,114.93,1078.28,115.49,1078.96,115.49z"/>
		<path class="st2" d="M1066.15,115.49h-8.05c-2.06,0-3.73-1.67-3.73-3.73v-8.05c0-2.06,1.67-3.73,3.73-3.73h8.05
			c2.06,0,3.73,1.67,3.73,3.73v8.05C1069.88,113.82,1068.21,115.49,1066.15,115.49z"/>
	</g>
	<path class="st1" d="M1222.25,49c0-0.66,0.53-1.19,1.19-1.19h12.02c0.66,0,1.19,0.53,1.19,1.19v20.69h4.37h12.24h8.45
		c0.66,0,1.19-0.53,1.19-1.19V49c0-0.66,0.53-1.19,1.19-1.19h11.94c0.66,0,1.19,0.53,1.19,1.19v24.98c0,1.06-0.33,2.12-0.99,3.18
		c-0.66,1.06-1.5,2-2.51,2.82c-1.01,0.82-2.08,1.5-3.22,2.03c-1.14,0.53-2.19,0.8-3.14,0.8h-14.1h-12.24h-4.37"/>
	<path class="st1" d="M1253.74,105.1h-7.1c-1.94,0-3.51-1.57-3.51-3.51v-28.4c0-1.94,1.57-3.51,3.51-3.51h7.1
		c1.94,0,3.51,1.57,3.51,3.51v28.4C1257.24,103.53,1255.67,105.1,1253.74,105.1z"/>
</g>
<path class="st3" d="M183.11-244.21h-75.25c-1.83,0-3.96,0.53-6.4,1.6c-2.44,1.07-4.72,2.41-6.85,4.04
	c-2.13,1.62-3.96,3.43-5.48,5.41c-1.52,1.98-2.28,3.88-2.28,5.71v73.26c0,2.03,0.63,4.04,1.9,6.02c1.27,1.98,2.87,3.78,4.8,5.41
	c1.93,1.62,3.98,2.92,6.17,3.88c2.18,0.97,4.19,1.45,6.02,1.45h77.39c1.26,0,2.28-1.02,2.28-2.28v-21.65c0-1.26-1.02-2.28-2.28-2.28
	h-66.73c-1.26,0-2.28-1.02-2.28-2.28v-47.84c0-1.26,1.02-2.28,2.28-2.28h66.73c1.26,0,2.28-1.02,2.28-2.28v-23.63
	C185.39-243.2,184.37-244.21,183.11-244.21z"/>
<path class="st3" d="M404.8-238.96c-1.98-1.57-4.06-2.84-6.25-3.81c-2.18-0.96-4.04-1.45-5.56-1.45h-77.54
	c-1.26,0-2.28,1.02-2.28,2.28v102.22c0,1.26,1.02,2.28,2.28,2.28H393c1.52,0,3.38-0.48,5.56-1.45c2.18-0.96,4.26-2.23,6.25-3.81
	c1.98-1.57,3.68-3.38,5.1-5.41c1.42-2.03,2.13-4.06,2.13-6.09v-28.48c0-1.42-0.66-2.82-1.98-4.19c-0.92-0.95-1.76-1.91-2.53-2.89
	c-0.61-0.78-0.66-1.85-0.12-2.69c0.8-1.25,1.69-2.49,2.65-3.72c1.32-1.67,1.98-3.22,1.98-4.65v-26.66c0-2.03-0.71-4.06-2.13-6.09
	C408.48-235.58,406.78-237.38,404.8-238.96z M384.62-204.6c0,1.26-1.02,2.28-2.28,2.28h-33.22c-1.26,0-2.28,1.02-2.28,2.28v20.58
	c0,1.26,1.02,2.28,2.28,2.28h33.22c1.26,0,2.28,1.02,2.28,2.28v9c0,1.26-1.02,2.28-2.28,2.28h-39.47c-1.26,0-2.28-1.02-2.28-2.28
	v-49.82c0-1.26,1.02-2.28,2.28-2.28h39.47c1.26,0,2.28,1.02,2.28,2.28V-204.6z"/>
<path class="st3" d="M519.58-244.21h-75.25c-1.83,0-3.96,0.53-6.4,1.6c-2.44,1.07-4.72,2.41-6.85,4.04
	c-2.13,1.62-3.96,3.43-5.48,5.41c-1.52,1.98-2.28,3.88-2.28,5.71v73.26c0,2.03,0.63,4.04,1.9,6.02c1.27,1.98,2.87,3.78,4.8,5.41
	c1.93,1.62,3.98,2.92,6.17,3.88c2.18,0.97,4.19,1.45,6.02,1.45h77.39c1.26,0,2.28-1.02,2.28-2.28v-21.65c0-1.26-1.02-2.28-2.28-2.28
	h-66.73c-1.26,0-2.28-1.02-2.28-2.28v-47.84c0-1.26,1.02-2.28,2.28-2.28h66.73c1.26,0,2.28-1.02,2.28-2.28v-23.63
	C521.86-243.2,520.84-244.21,519.58-244.21z"/>
<path class="st3" d="M459.09-202.33c-1.26,0-2.28,1.02-2.28,2.28v20.58c0,1.26,1.02,2.28,2.28,2.28h54.09
	c1.26,0,2.28-1.02,2.28-2.28v-20.58c0-1.26-1.02-2.28-2.28-2.28H459.09z"/>
<path class="st3" d="M630.69-238.96c-1.98-1.57-4.09-2.84-6.32-3.81c-2.23-0.96-4.11-1.45-5.64-1.45H535.4
	c-1.26,0-2.28,1.02-2.28,2.28v102.22c0,1.26,1.02,2.28,2.28,2.28h22.86c1.26,0,2.28-1.02,2.28-2.28v-76.02
	c0-1.26,1.02-2.28,2.28-2.28h45.26c1.26,0,2.28,1.02,2.28,2.28v11.14c0,1.26-1.02,2.28-2.28,2.28h-39.01
	c-1.26,0-2.28,1.02-2.28,2.28v20.58c0,1.26,1.02,2.28,2.28,2.28h15.15c0.81,0,1.56,0.43,1.96,1.13l21.98,37.5
	c0.41,0.7,1.16,1.13,1.96,1.13h24c1.72,0,2.82-1.83,2.01-3.35l-17.61-33.06c-0.81-1.52,0.29-3.35,2.01-3.35
	c0.11,0,0.22-0.01,0.33-0.02c1.78-0.22,3.65-0.85,5.62-1.88c2.03-1.07,3.88-2.38,5.56-3.96c1.68-1.57,3.07-3.33,4.19-5.25
	c1.12-1.93,1.68-3.86,1.68-5.79v-33.36c0-2.03-0.71-4.06-2.13-6.09C634.36-235.58,632.67-237.38,630.69-238.96z"/>
<path class="st3" d="M677.75-213.98c0.15-1.37,0.74-2.06,1.75-2.06h45.47c0.44,0,0.89,0.12,1.25,0.37c0.77,0.55,1.45,1.21,2.02,1.99
	c0.42,0.57,0.79,1.16,1.1,1.75c0.4,0.75,1.16,1.22,2.01,1.22h21.42c1.26,0,2.28-1.02,2.28-2.28v-2.6c0-3.35-0.38-6.73-1.14-10.13
	c-0.76-3.4-1.98-6.47-3.66-9.22c-1.68-2.74-3.81-4.97-6.4-6.7c-2.59-1.73-5.66-2.59-9.22-2.59h-61.08c-3.45,0-6.6,0.56-9.44,1.68
	c-2.84,1.12-5.28,2.51-7.31,4.19c-2.03,1.67-3.61,3.5-4.72,5.48c-1.12,1.98-1.68,3.78-1.68,5.41v33.51c0,1.73,0.81,3.56,2.44,5.48
	c1.62,1.93,3.55,3.73,5.79,5.41c2.23,1.68,4.54,3.07,6.93,4.19c2.38,1.12,4.29,1.68,5.71,1.68h54.53c0.91,0,1.52,0.46,1.83,1.37
	c0.3,0.91,0.46,1.88,0.46,2.89v5.64c0,0.81-0.1,1.63-0.3,2.44c-0.2,0.81-0.86,1.22-1.98,1.22h-45.47c-0.44,0-0.88-0.12-1.25-0.37
	c-1.01-0.7-1.71-1.41-2.09-2.14c-0.26-0.49-0.52-0.98-0.8-1.48c-0.4-0.73-1.17-1.18-2-1.18h-22.66c-1.3,0-2.35,1.08-2.28,2.38
	c0.12,2.3,0.4,4.78,0.85,7.44c0.61,3.61,1.68,7.01,3.2,10.21c1.52,3.2,3.6,5.89,6.24,8.07c2.64,2.18,5.94,3.27,9.9,3.27h65.19
	c2.64,0,5.2-0.46,7.69-1.37c2.49-0.91,4.67-2.13,6.55-3.66c1.88-1.52,3.37-3.3,4.49-5.33c1.12-2.03,1.68-4.16,1.68-6.4v-31.38
	c0-1.42-0.59-3.1-1.75-5.03c-1.17-1.93-2.59-3.75-4.26-5.48c-1.68-1.73-3.45-3.2-5.33-4.42c-1.88-1.22-3.58-1.83-5.1-1.83h-56.51
	c-1.12,0-1.98-0.25-2.59-0.76c-0.61-0.51-1.07-1.14-1.37-1.9s-0.48-1.55-0.53-2.36c-0.05-0.81-0.08-1.52-0.08-2.13v-1.22
	C677.52-211.52,677.6-212.61,677.75-213.98z"/>
<path class="st2" d="M300.33-242.86c-0.34-0.8-1.12-1.35-2.04-1.35h0h-22.25h-0.15c-1.22,0-2.22,0.99-2.22,2.22v37.12
	c-0.32,0.84-1.12,1.44-2.07,1.44h-6.08h-5.75h-3.93h-13.13h-2.24h-7.43h-6.08c-0.95,0-1.75-0.6-2.07-1.44V-242
	c0-1.22-0.99-2.22-2.22-2.22h-0.15h-22.25h0c-0.92,0-1.71,0.56-2.04,1.35c-0.11,0.27-0.17,0.56-0.17,0.86v46.56
	c0,1.98,0.62,3.95,1.85,5.93c1.23,1.98,2.79,3.73,4.67,5.26c1.88,1.53,3.88,2.79,6,3.78c2.12,0.99,4.08,1.48,5.86,1.48h8.45h8.15
	h3.93v38.03c0,1.94,1.57,3.51,3.51,3.51h19.3c1.94,0,3.51-1.57,3.51-3.51v-38.03h2.25h8.15h8.45c1.78,0,3.73-0.49,5.86-1.48
	c2.13-0.99,4.13-2.25,6-3.78c1.88-1.53,3.44-3.29,4.67-5.26c1.24-1.98,1.85-3.95,1.85-5.93V-242
	C300.51-242.3,300.45-242.6,300.33-242.86z"/>
<path d="M164.61,395.56H89.36c-1.83,0-3.96,0.53-6.4,1.6c-2.44,1.07-4.72,2.41-6.85,4.04c-2.13,1.62-3.96,3.43-5.48,5.41
	c-1.52,1.98-2.28,3.88-2.28,5.71v73.26c0,2.03,0.63,4.04,1.9,6.02c1.27,1.98,2.87,3.78,4.8,5.41c1.93,1.62,3.98,2.92,6.17,3.88
	c2.18,0.97,4.19,1.45,6.02,1.45h77.39c1.26,0,2.28-1.02,2.28-2.28v-21.65c0-1.26-1.02-2.28-2.28-2.28H97.88
	c-1.26,0-2.28-1.02-2.28-2.28v-47.84c0-1.26,1.02-2.28,2.28-2.28h66.73c1.26,0,2.28-1.02,2.28-2.28v-23.63
	C166.89,396.58,165.87,395.56,164.61,395.56z"/>
<path d="M386.3,400.82c-1.98-1.57-4.06-2.84-6.25-3.81c-2.18-0.96-4.04-1.45-5.56-1.45h-77.54c-1.26,0-2.28,1.02-2.28,2.28v102.22
	c0,1.26,1.02,2.28,2.28,2.28h77.54c1.52,0,3.38-0.48,5.56-1.45c2.18-0.96,4.26-2.23,6.25-3.81c1.98-1.57,3.68-3.38,5.1-5.41
	c1.42-2.03,2.13-4.06,2.13-6.09V457.1c0-1.42-0.66-2.82-1.98-4.19c-0.92-0.95-1.76-1.91-2.53-2.89c-0.61-0.78-0.66-1.85-0.12-2.69
	c0.8-1.25,1.69-2.49,2.65-3.72c1.32-1.67,1.98-3.22,1.98-4.65v-26.66c0-2.03-0.71-4.06-2.13-6.09
	C389.98,404.2,388.28,402.39,386.3,400.82z M366.12,435.17c0,1.26-1.02,2.28-2.28,2.28h-33.22c-1.26,0-2.28,1.02-2.28,2.28v20.58
	c0,1.26,1.02,2.28,2.28,2.28h33.22c1.26,0,2.28,1.02,2.28,2.28v9c0,1.26-1.02,2.28-2.28,2.28h-39.47c-1.26,0-2.28-1.02-2.28-2.28
	v-49.82c0-1.26,1.02-2.28,2.28-2.28h39.47c1.26,0,2.28,1.02,2.28,2.28V435.17z"/>
<path d="M501.08,395.56h-75.25c-1.83,0-3.96,0.53-6.4,1.6c-2.44,1.07-4.72,2.41-6.85,4.04c-2.13,1.62-3.96,3.43-5.48,5.41
	c-1.52,1.98-2.28,3.88-2.28,5.71v73.26c0,2.03,0.63,4.04,1.9,6.02c1.27,1.98,2.87,3.78,4.8,5.41c1.93,1.62,3.98,2.92,6.17,3.88
	c2.18,0.97,4.19,1.45,6.02,1.45h77.39c1.26,0,2.28-1.02,2.28-2.28v-21.65c0-1.26-1.02-2.28-2.28-2.28h-66.73
	c-1.26,0-2.28-1.02-2.28-2.28v-47.84c0-1.26,1.02-2.28,2.28-2.28h66.73c1.26,0,2.28-1.02,2.28-2.28v-23.63
	C503.36,396.58,502.34,395.56,501.08,395.56z"/>
<path d="M440.59,437.45c-1.26,0-2.28,1.02-2.28,2.28v20.58c0,1.26,1.02,2.28,2.28,2.28h54.09c1.26,0,2.28-1.02,2.28-2.28v-20.58
	c0-1.26-1.02-2.28-2.28-2.28H440.59z"/>
<path d="M612.19,400.82c-1.98-1.57-4.09-2.84-6.32-3.81c-2.23-0.96-4.11-1.45-5.64-1.45H516.9c-1.26,0-2.28,1.02-2.28,2.28v102.22
	c0,1.26,1.02,2.28,2.28,2.28h22.86c1.26,0,2.28-1.02,2.28-2.28v-76.02c0-1.26,1.02-2.28,2.28-2.28h45.26c1.26,0,2.28,1.02,2.28,2.28
	v11.14c0,1.26-1.02,2.28-2.28,2.28h-39.01c-1.26,0-2.28,1.02-2.28,2.28v20.58c0,1.26,1.02,2.28,2.28,2.28h15.15
	c0.81,0,1.56,0.43,1.96,1.13l21.98,37.5c0.41,0.7,1.16,1.13,1.96,1.13h24c1.72,0,2.82-1.83,2.01-3.35l-17.61-33.06
	c-0.81-1.52,0.29-3.35,2.01-3.35c0.11,0,0.22-0.01,0.33-0.02c1.78-0.22,3.65-0.85,5.62-1.88c2.03-1.07,3.88-2.38,5.56-3.96
	c1.68-1.57,3.07-3.33,4.19-5.25c1.12-1.93,1.68-3.86,1.68-5.79v-33.36c0-2.03-0.71-4.06-2.13-6.09
	C615.87,404.2,614.17,402.39,612.19,400.82z"/>
<path d="M659.25,425.8c0.15-1.37,0.74-2.06,1.75-2.06h45.47c0.44,0,0.89,0.12,1.25,0.37c0.77,0.55,1.45,1.21,2.02,1.99
	c0.42,0.57,0.79,1.16,1.1,1.75c0.4,0.75,1.16,1.22,2.01,1.22h21.42c1.26,0,2.28-1.02,2.28-2.28v-2.6c0-3.35-0.38-6.73-1.14-10.13
	c-0.76-3.4-1.98-6.47-3.66-9.22c-1.68-2.74-3.81-4.97-6.4-6.7c-2.59-1.73-5.66-2.59-9.22-2.59h-61.08c-3.45,0-6.6,0.56-9.44,1.68
	c-2.84,1.12-5.28,2.51-7.31,4.19c-2.03,1.67-3.61,3.5-4.72,5.48c-1.12,1.98-1.68,3.78-1.68,5.41v33.51c0,1.73,0.81,3.56,2.44,5.48
	c1.62,1.93,3.55,3.73,5.79,5.41c2.23,1.68,4.54,3.07,6.93,4.19c2.38,1.12,4.29,1.68,5.71,1.68h54.53c0.91,0,1.52,0.46,1.83,1.37
	c0.3,0.91,0.46,1.88,0.46,2.89v5.64c0,0.81-0.1,1.63-0.3,2.44c-0.2,0.81-0.86,1.22-1.98,1.22h-45.47c-0.44,0-0.88-0.12-1.25-0.37
	c-1.01-0.7-1.71-1.41-2.09-2.14c-0.26-0.49-0.52-0.98-0.8-1.48c-0.4-0.73-1.17-1.18-2-1.18h-22.66c-1.3,0-2.35,1.08-2.28,2.38
	c0.12,2.3,0.4,4.78,0.85,7.44c0.61,3.61,1.68,7.01,3.2,10.21c1.52,3.2,3.6,5.89,6.24,8.07c2.64,2.18,5.94,3.27,9.9,3.27h65.19
	c2.64,0,5.2-0.46,7.69-1.37c2.49-0.91,4.67-2.13,6.55-3.66c1.88-1.52,3.37-3.3,4.49-5.33c1.12-2.03,1.68-4.16,1.68-6.4V454.2
	c0-1.42-0.59-3.1-1.75-5.03c-1.17-1.93-2.59-3.75-4.26-5.48c-1.68-1.73-3.45-3.2-5.33-4.42c-1.88-1.22-3.58-1.83-5.1-1.83h-56.51
	c-1.12,0-1.98-0.25-2.59-0.76c-0.61-0.51-1.07-1.14-1.37-1.9s-0.48-1.55-0.53-2.36c-0.05-0.81-0.08-1.52-0.08-2.13v-1.22
	C659.02,428.26,659.1,427.17,659.25,425.8z"/>
<path d="M281.84,396.92c-0.34-0.8-1.12-1.35-2.04-1.35h0h-22.25h-0.15c-1.22,0-2.22,0.99-2.22,2.22v37.12
	c-0.32,0.84-1.12,1.44-2.07,1.44h-6.08h-5.75h-3.93h-13.13h-2.24h-7.43h-6.08c-0.95,0-1.75-0.6-2.07-1.44v-37.12
	c0-1.22-0.99-2.22-2.22-2.22h-0.15h-22.25h0c-0.92,0-1.71,0.56-2.04,1.35c-0.11,0.27-0.17,0.56-0.17,0.86v46.56
	c0,1.98,0.62,3.95,1.85,5.93c1.23,1.98,2.79,3.73,4.67,5.26c1.88,1.53,3.88,2.79,6,3.78c2.12,0.99,4.08,1.48,5.86,1.48h8.45h8.15
	h3.93v38.03c0,1.94,1.57,3.51,3.51,3.51h19.3c1.94,0,3.51-1.57,3.51-3.51V460.8h2.25h8.15h8.45c1.78,0,3.73-0.49,5.86-1.48
	c2.13-0.99,4.13-2.25,6-3.78c1.88-1.53,3.44-3.29,4.67-5.26c1.24-1.98,1.85-3.95,1.85-5.93v-46.56
	C282.01,397.47,281.95,397.18,281.84,396.92z"/>
<rect x="861.89" y="448.25" width="841.89" height="149.91"/>
<rect x="861.89" y="299.15" class="st4" width="841.89" height="149.91"/>
<rect x="861.89" y="150.04" class="st1" width="841.89" height="149.91"/>
<g>
	<path class="st4" d="M1133.26,272.87h-72.16c-6.51,0-11.8-5.28-11.8-11.8v-72.16c0-6.51,5.28-11.8,11.8-11.8h72.16
		c6.51,0,11.8,5.28,11.8,11.8v72.16C1145.06,267.59,1139.78,272.87,1133.26,272.87z"/>
	<path class="st4" d="M1218.21,197.11h-39.3c-0.95,0-2.07,0.28-3.34,0.84c-1.27,0.56-2.47,1.26-3.58,2.11
		c-1.11,0.85-2.07,1.79-2.86,2.82c-0.8,1.03-1.19,2.03-1.19,2.98v38.26c0,1.06,0.33,2.11,0.99,3.14c0.66,1.03,1.5,1.98,2.51,2.82
		c1.01,0.85,2.08,1.52,3.22,2.03c1.14,0.5,2.19,0.76,3.14,0.76h40.41c0.66,0,1.19-0.53,1.19-1.19v-11.3c0-0.66-0.53-1.19-1.19-1.19
		h-34.85c-0.66,0-1.19-0.53-1.19-1.19v-24.99c0-0.66,0.53-1.19,1.19-1.19h34.85c0.66,0,1.19-0.53,1.19-1.19V198.3
		C1219.4,197.65,1218.87,197.11,1218.21,197.11z"/>
	<path class="st4" d="M1280.26,198.3c0-0.66-0.53-1.19-1.19-1.19h-12.02c-0.66,0-1.19,0.53-1.19,1.19v20.69h-4.37h-12.24h-8.45
		c-0.66,0-1.19-0.53-1.19-1.19v-19.5c0-0.66-0.53-1.19-1.19-1.19h-11.94c-0.66,0-1.19,0.53-1.19,1.19v24.98
		c0,1.06,0.33,2.12,0.99,3.18c0.66,1.06,1.5,2,2.51,2.82c1.01,0.82,2.08,1.5,3.22,2.03c1.14,0.53,2.19,0.8,3.14,0.8h14.1h12.24h4.37
		"/>
	<path class="st4" d="M1333.99,199.86c-1.03-0.82-2.12-1.48-3.26-1.99c-1.14-0.5-2.11-0.76-2.9-0.76h-40.49
		c-0.66,0-1.19,0.53-1.19,1.19v53.38c0,0.66,0.53,1.19,1.19,1.19h40.49c0.8,0,1.76-0.25,2.9-0.76c1.14-0.5,2.23-1.17,3.26-1.99
		c1.03-0.82,1.92-1.76,2.66-2.82c0.74-1.06,1.11-2.12,1.11-3.18v-14.88c0-0.74-0.35-1.47-1.03-2.19c-0.48-0.5-0.92-1-1.32-1.51
		c-0.32-0.41-0.34-0.97-0.06-1.4c0.42-0.65,0.88-1.3,1.38-1.94c0.69-0.87,1.03-1.68,1.03-2.43v-13.92c0-1.06-0.37-2.12-1.11-3.18
		C1335.91,201.62,1335.02,200.68,1333.99,199.86z M1323.45,217.8c0,0.66-0.53,1.19-1.19,1.19h-17.35c-0.66,0-1.19,0.53-1.19,1.19
		v10.75c0,0.66,0.53,1.19,1.19,1.19h17.35c0.66,0,1.19,0.53,1.19,1.19v4.7c0,0.66-0.53,1.19-1.19,1.19h-20.61
		c-0.66,0-1.19-0.53-1.19-1.19v-26.02c0-0.66,0.53-1.19,1.19-1.19h20.61c0.66,0,1.19,0.53,1.19,1.19V217.8z"/>
	<path class="st4" d="M1393.93,197.11h-39.3c-0.95,0-2.07,0.28-3.34,0.84c-1.27,0.56-2.47,1.26-3.58,2.11
		c-1.11,0.85-2.07,1.79-2.86,2.82c-0.8,1.03-1.19,2.03-1.19,2.98v38.26c0,1.06,0.33,2.11,0.99,3.14c0.66,1.03,1.5,1.98,2.51,2.82
		c1.01,0.85,2.08,1.52,3.22,2.03c1.14,0.5,2.19,0.76,3.14,0.76h40.41c0.66,0,1.19-0.53,1.19-1.19v-11.3c0-0.66-0.53-1.19-1.19-1.19
		h-34.85c-0.66,0-1.19-0.53-1.19-1.19v-24.99c0-0.66,0.53-1.19,1.19-1.19h34.85c0.66,0,1.19-0.53,1.19-1.19V198.3
		C1395.12,197.65,1394.59,197.11,1393.93,197.11z"/>
	<path class="st4" d="M1362.34,218.99c-0.66,0-1.19,0.53-1.19,1.19v10.75c0,0.66,0.53,1.19,1.19,1.19h28.25
		c0.66,0,1.19-0.53,1.19-1.19v-10.75c0-0.66-0.53-1.19-1.19-1.19H1362.34z"/>
	<path class="st4" d="M1451.96,199.86c-1.03-0.82-2.14-1.48-3.3-1.99c-1.17-0.5-2.15-0.76-2.94-0.76h-43.52
		c-0.66,0-1.19,0.53-1.19,1.19v53.38c0,0.66,0.53,1.19,1.19,1.19h11.94c0.66,0,1.19-0.53,1.19-1.19v-39.7
		c0-0.66,0.53-1.19,1.19-1.19h23.63c0.66,0,1.19,0.53,1.19,1.19v5.82c0,0.66-0.53,1.19-1.19,1.19h-20.37
		c-0.66,0-1.19,0.53-1.19,1.19v10.75c0,0.66,0.53,1.19,1.19,1.19h7.91c0.42,0,0.81,0.22,1.03,0.59l11.48,19.59
		c0.21,0.36,0.6,0.59,1.03,0.59h12.53c0.9,0,1.47-0.96,1.05-1.75l-9.2-17.27c-0.42-0.79,0.15-1.75,1.05-1.75
		c0.06,0,0.12,0,0.17-0.01c0.93-0.12,1.91-0.44,2.94-0.98c1.06-0.56,2.03-1.25,2.9-2.07c0.88-0.82,1.6-1.74,2.19-2.74
		c0.58-1.01,0.87-2.02,0.87-3.02v-17.42c0-1.06-0.37-2.12-1.11-3.18C1453.88,201.62,1452.99,200.68,1451.96,199.86z"/>
	<path class="st4" d="M1476.54,212.9c0.08-0.72,0.38-1.07,0.91-1.07h23.75c0.23,0,0.46,0.06,0.65,0.19c0.4,0.29,0.76,0.63,1.06,1.04
		c0.22,0.3,0.41,0.6,0.58,0.91c0.21,0.39,0.61,0.64,1.05,0.64h11.18c0.66,0,1.19-0.53,1.19-1.19v-1.36c0-1.75-0.2-3.51-0.6-5.29
		c-0.4-1.78-1.03-3.38-1.91-4.81c-0.87-1.43-1.99-2.6-3.34-3.5c-1.35-0.9-2.96-1.35-4.81-1.35h-31.9c-1.8,0-3.45,0.29-4.93,0.88
		c-1.49,0.58-2.76,1.31-3.82,2.19c-1.06,0.87-1.88,1.83-2.47,2.86c-0.58,1.03-0.87,1.98-0.87,2.82v17.5c0,0.9,0.42,1.86,1.27,2.86
		c0.85,1.01,1.86,1.95,3.02,2.82c1.17,0.88,2.37,1.6,3.62,2.19c1.25,0.58,2.24,0.88,2.98,0.88h28.48c0.48,0,0.8,0.24,0.95,0.72
		c0.16,0.48,0.24,0.98,0.24,1.51v2.94c0,0.43-0.05,0.85-0.16,1.27c-0.11,0.42-0.45,0.64-1.03,0.64h-23.75
		c-0.23,0-0.46-0.06-0.65-0.19c-0.53-0.36-0.89-0.74-1.09-1.12c-0.13-0.25-0.27-0.51-0.42-0.77c-0.21-0.38-0.61-0.62-1.04-0.62
		h-11.83c-0.68,0-1.23,0.56-1.19,1.24c0.06,1.2,0.21,2.5,0.44,3.89c0.32,1.88,0.87,3.66,1.67,5.33c0.8,1.67,1.88,3.08,3.26,4.22
		c1.38,1.14,3.1,1.71,5.17,1.71h34.05c1.38,0,2.72-0.24,4.02-0.72c1.3-0.48,2.44-1.11,3.42-1.91c0.98-0.8,1.76-1.72,2.35-2.78
		c0.58-1.06,0.88-2.17,0.88-3.34v-16.39c0-0.74-0.31-1.62-0.92-2.62c-0.61-1.01-1.35-1.96-2.23-2.86c-0.88-0.9-1.8-1.67-2.78-2.31
		c-0.98-0.64-1.87-0.95-2.66-0.95h-29.51c-0.58,0-1.03-0.13-1.35-0.4c-0.32-0.27-0.56-0.6-0.72-0.99c-0.16-0.4-0.25-0.81-0.28-1.23
		c-0.03-0.42-0.04-0.8-0.04-1.11v-0.64C1476.42,214.19,1476.46,213.62,1476.54,212.9z"/>
	<g>
		<path class="st2" d="M1109.64,185.2h-40.83c-0.99,0-2.15,0.29-3.47,0.87c-1.32,0.58-2.56,1.31-3.72,2.19
			c-1.16,0.88-2.15,1.86-2.97,2.93c-0.83,1.07-1.24,2.11-1.24,3.1v39.75c0,1.1,0.34,2.19,1.03,3.26c0.69,1.07,1.56,2.05,2.6,2.93
			c1.05,0.88,2.16,1.58,3.35,2.11c1.18,0.52,2.27,0.79,3.26,0.79h41.98c0.68,0,1.24-0.55,1.24-1.24v-11.74
			c0-0.68-0.55-1.24-1.24-1.24h-36.2c-0.68,0-1.23-0.55-1.23-1.24v-25.96c0-0.68,0.55-1.24,1.23-1.24h36.2
			c0.68,0,1.24-0.55,1.24-1.24v-12.82C1110.88,185.75,1110.33,185.2,1109.64,185.2z"/>
		<path class="st2" d="M1130.5,200.79h-8.05c-2.06,0-3.73-1.67-3.73-3.73v-8.05c0-2.06,1.67-3.73,3.73-3.73h8.05
			c2.06,0,3.73,1.67,3.73,3.73v8.05C1134.23,199.12,1132.56,200.79,1130.5,200.79z"/>
		<path class="st2" d="M1082,264.79h40.83c0.99,0,2.15-0.29,3.47-0.87c1.32-0.58,2.56-1.31,3.72-2.19c1.16-0.88,2.15-1.86,2.97-2.93
			c0.83-1.07,1.24-2.11,1.24-3.1v-39.75c0-1.1-0.34-2.19-1.03-3.26c-0.69-1.07-1.56-2.05-2.6-2.93c-1.05-0.88-2.16-1.58-3.35-2.11
			c-1.18-0.52-2.27-0.79-3.26-0.79H1082c-0.68,0-1.23,0.55-1.23,1.24v11.74c0,0.68,0.55,1.24,1.23,1.24h36.2
			c0.68,0,1.23,0.55,1.23,1.24v25.96c0,0.68-0.55,1.24-1.23,1.24H1082c-0.68,0-1.23,0.55-1.23,1.24v12.82
			C1080.77,264.24,1081.32,264.79,1082,264.79z"/>
		<path class="st2" d="M1069.19,264.79h-8.05c-2.06,0-3.73-1.67-3.73-3.73v-8.05c0-2.06,1.67-3.73,3.73-3.73h8.05
			c2.06,0,3.73,1.67,3.73,3.73v8.05C1072.92,263.12,1071.25,264.79,1069.19,264.79z"/>
	</g>
	<path class="st4" d="M1225.29,198.3c0-0.66,0.53-1.19,1.19-1.19h12.02c0.66,0,1.19,0.53,1.19,1.19v20.69h4.37h12.24h8.45
		c0.66,0,1.19-0.53,1.19-1.19v-19.5c0-0.66,0.53-1.19,1.19-1.19h11.94c0.66,0,1.19,0.53,1.19,1.19v24.98c0,1.06-0.33,2.12-0.99,3.18
		c-0.66,1.06-1.5,2-2.51,2.82c-1.01,0.82-2.08,1.5-3.22,2.03c-1.14,0.53-2.19,0.8-3.14,0.8h-14.1h-12.24h-4.37"/>
	<path class="st4" d="M1256.78,254.4h-7.1c-1.94,0-3.51-1.57-3.51-3.51v-28.4c0-1.94,1.57-3.51,3.51-3.51h7.1
		c1.94,0,3.51,1.57,3.51,3.51v28.4C1260.28,252.83,1258.71,254.4,1256.78,254.4z"/>
</g>
<g>
	<path class="st4" d="M1130.41,571.09h-72.16c-6.51,0-11.8-5.28-11.8-11.8v-72.16c0-6.51,5.28-11.8,11.8-11.8h72.16
		c6.51,0,11.8,5.28,11.8,11.8v72.16C1142.21,565.8,1136.93,571.09,1130.41,571.09z"/>
	<path class="st4" d="M1215.37,495.33h-39.3c-0.95,0-2.07,0.28-3.34,0.84c-1.27,0.56-2.47,1.26-3.58,2.11
		c-1.11,0.85-2.07,1.79-2.86,2.82c-0.8,1.03-1.19,2.03-1.19,2.98v38.26c0,1.06,0.33,2.11,0.99,3.14c0.66,1.03,1.5,1.98,2.51,2.82
		c1.01,0.85,2.08,1.52,3.22,2.03c1.14,0.5,2.19,0.76,3.14,0.76h40.41c0.66,0,1.19-0.53,1.19-1.19v-11.3c0-0.66-0.53-1.19-1.19-1.19
		h-34.85c-0.66,0-1.19-0.53-1.19-1.19v-24.99c0-0.66,0.53-1.19,1.19-1.19h34.85c0.66,0,1.19-0.53,1.19-1.19v-12.34
		C1216.56,495.86,1216.02,495.33,1215.37,495.33z"/>
	<path class="st4" d="M1277.41,496.52c0-0.66-0.53-1.19-1.19-1.19h-12.02c-0.66,0-1.19,0.53-1.19,1.19v20.69h-4.37h-12.24h-8.45
		c-0.66,0-1.19-0.53-1.19-1.19v-19.5c0-0.66-0.53-1.19-1.19-1.19h-11.94c-0.66,0-1.19,0.53-1.19,1.19v24.98
		c0,1.06,0.33,2.12,0.99,3.18c0.66,1.06,1.5,2,2.51,2.82c1.01,0.82,2.08,1.5,3.22,2.03c1.14,0.53,2.19,0.8,3.14,0.8h14.1h12.24h4.37
		"/>
	<path class="st4" d="M1331.14,498.07c-1.03-0.82-2.12-1.48-3.26-1.99c-1.14-0.5-2.11-0.76-2.9-0.76h-40.49
		c-0.66,0-1.19,0.53-1.19,1.19v53.38c0,0.66,0.53,1.19,1.19,1.19h40.49c0.8,0,1.76-0.25,2.9-0.76c1.14-0.5,2.23-1.17,3.26-1.99
		c1.03-0.82,1.92-1.76,2.66-2.82c0.74-1.06,1.11-2.12,1.11-3.18v-14.88c0-0.74-0.35-1.47-1.03-2.19c-0.48-0.5-0.92-1-1.32-1.51
		c-0.32-0.41-0.34-0.97-0.06-1.4c0.42-0.65,0.88-1.3,1.38-1.94c0.69-0.87,1.03-1.68,1.03-2.43v-13.92c0-1.06-0.37-2.12-1.11-3.18
		C1333.06,499.84,1332.18,498.89,1331.14,498.07z M1320.6,516.01c0,0.66-0.53,1.19-1.19,1.19h-17.35c-0.66,0-1.19,0.53-1.19,1.19
		v10.75c0,0.66,0.53,1.19,1.19,1.19h17.35c0.66,0,1.19,0.53,1.19,1.19v4.7c0,0.66-0.53,1.19-1.19,1.19h-20.61
		c-0.66,0-1.19-0.53-1.19-1.19V510.2c0-0.66,0.53-1.19,1.19-1.19h20.61c0.66,0,1.19,0.53,1.19,1.19V516.01z"/>
	<path class="st4" d="M1391.08,495.33h-39.3c-0.95,0-2.07,0.28-3.34,0.84c-1.27,0.56-2.47,1.26-3.58,2.11
		c-1.11,0.85-2.07,1.79-2.86,2.82c-0.8,1.03-1.19,2.03-1.19,2.98v38.26c0,1.06,0.33,2.11,0.99,3.14c0.66,1.03,1.5,1.98,2.51,2.82
		c1.01,0.85,2.08,1.52,3.22,2.03c1.14,0.5,2.19,0.76,3.14,0.76h40.41c0.66,0,1.19-0.53,1.19-1.19v-11.3c0-0.66-0.53-1.19-1.19-1.19
		h-34.85c-0.66,0-1.19-0.53-1.19-1.19v-24.99c0-0.66,0.53-1.19,1.19-1.19h34.85c0.66,0,1.19-0.53,1.19-1.19v-12.34
		C1392.27,495.86,1391.74,495.33,1391.08,495.33z"/>
	<path class="st4" d="M1359.5,517.2c-0.66,0-1.19,0.53-1.19,1.19v10.75c0,0.66,0.53,1.19,1.19,1.19h28.25
		c0.66,0,1.19-0.53,1.19-1.19v-10.75c0-0.66-0.53-1.19-1.19-1.19H1359.5z"/>
	<path class="st4" d="M1449.11,498.07c-1.03-0.82-2.14-1.48-3.3-1.99c-1.17-0.5-2.15-0.76-2.94-0.76h-43.52
		c-0.66,0-1.19,0.53-1.19,1.19v53.38c0,0.66,0.53,1.19,1.19,1.19h11.94c0.66,0,1.19-0.53,1.19-1.19v-39.7
		c0-0.66,0.53-1.19,1.19-1.19h23.63c0.66,0,1.19,0.53,1.19,1.19v5.82c0,0.66-0.53,1.19-1.19,1.19h-20.37
		c-0.66,0-1.19,0.53-1.19,1.19v10.75c0,0.66,0.53,1.19,1.19,1.19h7.91c0.42,0,0.81,0.22,1.03,0.59l11.48,19.59
		c0.21,0.36,0.6,0.59,1.03,0.59h12.53c0.9,0,1.47-0.96,1.05-1.75l-9.2-17.27c-0.42-0.79,0.15-1.75,1.05-1.75
		c0.06,0,0.12,0,0.17-0.01c0.93-0.12,1.91-0.44,2.94-0.98c1.06-0.56,2.03-1.25,2.9-2.07c0.88-0.82,1.6-1.74,2.19-2.74
		c0.58-1.01,0.87-2.02,0.87-3.02v-17.42c0-1.06-0.37-2.12-1.11-3.18C1451.03,499.84,1450.14,498.89,1449.11,498.07z"/>
	<path class="st4" d="M1473.69,511.12c0.08-0.72,0.38-1.07,0.91-1.07h23.75c0.23,0,0.46,0.06,0.65,0.19
		c0.4,0.29,0.76,0.63,1.06,1.04c0.22,0.3,0.41,0.6,0.58,0.91c0.21,0.39,0.61,0.64,1.05,0.64h11.18c0.66,0,1.19-0.53,1.19-1.19v-1.36
		c0-1.75-0.2-3.51-0.6-5.29c-0.4-1.78-1.03-3.38-1.91-4.81c-0.88-1.43-1.99-2.6-3.34-3.5c-1.35-0.9-2.96-1.35-4.81-1.35h-31.9
		c-1.8,0-3.45,0.29-4.93,0.88c-1.49,0.58-2.76,1.31-3.82,2.19c-1.06,0.87-1.88,1.83-2.47,2.86c-0.58,1.03-0.87,1.98-0.87,2.82v17.5
		c0,0.9,0.42,1.86,1.27,2.86c0.85,1.01,1.86,1.95,3.02,2.82c1.17,0.88,2.37,1.6,3.62,2.19c1.25,0.58,2.24,0.88,2.98,0.88h28.48
		c0.48,0,0.8,0.24,0.95,0.72c0.16,0.48,0.24,0.98,0.24,1.51v2.94c0,0.43-0.05,0.85-0.16,1.27c-0.11,0.42-0.45,0.64-1.03,0.64h-23.75
		c-0.23,0-0.46-0.06-0.65-0.19c-0.53-0.36-0.89-0.74-1.09-1.12c-0.13-0.25-0.27-0.51-0.42-0.77c-0.21-0.38-0.61-0.62-1.04-0.62H1460
		c-0.68,0-1.23,0.56-1.19,1.24c0.06,1.2,0.21,2.5,0.44,3.89c0.32,1.88,0.88,3.66,1.67,5.33c0.8,1.67,1.88,3.08,3.26,4.22
		c1.38,1.14,3.1,1.71,5.17,1.71h34.05c1.38,0,2.72-0.24,4.02-0.72c1.3-0.48,2.44-1.11,3.42-1.91c0.98-0.8,1.76-1.72,2.35-2.78
		c0.58-1.06,0.88-2.17,0.88-3.34v-16.39c0-0.74-0.31-1.62-0.91-2.62c-0.61-1.01-1.35-1.96-2.23-2.86c-0.88-0.9-1.8-1.67-2.78-2.31
		c-0.98-0.64-1.87-0.95-2.66-0.95h-29.51c-0.58,0-1.03-0.13-1.35-0.4c-0.32-0.27-0.56-0.6-0.72-0.99c-0.16-0.4-0.25-0.81-0.28-1.23
		c-0.03-0.42-0.04-0.8-0.04-1.11v-0.64C1473.57,512.4,1473.61,511.83,1473.69,511.12z"/>
	<g>
		<path class="st2" d="M1106.79,483.41h-40.83c-0.99,0-2.15,0.29-3.47,0.87c-1.32,0.58-2.56,1.31-3.72,2.19
			c-1.16,0.88-2.15,1.86-2.97,2.93c-0.83,1.07-1.24,2.11-1.24,3.1v39.75c0,1.1,0.34,2.19,1.03,3.26c0.69,1.07,1.56,2.05,2.6,2.93
			c1.05,0.88,2.16,1.58,3.35,2.11c1.18,0.52,2.27,0.79,3.26,0.79h41.98c0.68,0,1.24-0.55,1.24-1.24v-11.74
			c0-0.68-0.55-1.23-1.24-1.23h-36.2c-0.68,0-1.23-0.55-1.23-1.24v-25.96c0-0.68,0.55-1.24,1.23-1.24h36.2
			c0.68,0,1.24-0.55,1.24-1.24v-12.82C1108.03,483.96,1107.48,483.41,1106.79,483.41z"/>
		<path class="st2" d="M1127.66,499h-8.05c-2.06,0-3.73-1.67-3.73-3.73v-8.05c0-2.06,1.67-3.73,3.73-3.73h8.05
			c2.06,0,3.73,1.67,3.73,3.73v8.05C1131.38,497.33,1129.71,499,1127.66,499z"/>
		<path class="st2" d="M1079.15,563.01h40.83c0.99,0,2.15-0.29,3.47-0.87c1.32-0.58,2.56-1.31,3.72-2.19
			c1.16-0.88,2.15-1.86,2.97-2.93c0.83-1.07,1.24-2.11,1.24-3.1v-39.75c0-1.1-0.34-2.19-1.03-3.26c-0.69-1.07-1.56-2.05-2.6-2.93
			c-1.05-0.88-2.16-1.58-3.35-2.11c-1.18-0.52-2.27-0.79-3.26-0.79h-41.98c-0.68,0-1.24,0.55-1.24,1.24v11.74
			c0,0.68,0.55,1.23,1.24,1.23h36.2c0.68,0,1.23,0.55,1.23,1.24v25.96c0,0.68-0.55,1.24-1.23,1.24h-36.2
			c-0.68,0-1.24,0.55-1.24,1.23v12.82C1077.92,562.45,1078.47,563.01,1079.15,563.01z"/>
		<path class="st2" d="M1066.34,563.01h-8.05c-2.06,0-3.73-1.67-3.73-3.73v-8.05c0-2.06,1.67-3.73,3.73-3.73h8.05
			c2.06,0,3.73,1.67,3.73,3.73v8.05C1070.07,561.34,1068.4,563.01,1066.34,563.01z"/>
	</g>
	<path class="st4" d="M1222.44,496.52c0-0.66,0.53-1.19,1.19-1.19h12.02c0.66,0,1.19,0.53,1.19,1.19v20.69h4.37h12.24h8.45
		c0.66,0,1.19-0.53,1.19-1.19v-19.5c0-0.66,0.53-1.19,1.19-1.19h11.94c0.66,0,1.19,0.53,1.19,1.19v24.98c0,1.06-0.33,2.12-0.99,3.18
		c-0.66,1.06-1.5,2-2.51,2.82c-1.01,0.82-2.08,1.5-3.22,2.03c-1.14,0.53-2.19,0.8-3.14,0.8h-14.1h-12.24h-4.37"/>
	<path class="st4" d="M1253.93,552.62h-7.1c-1.94,0-3.51-1.57-3.51-3.51v-28.4c0-1.94,1.57-3.51,3.51-3.51h7.1
		c1.94,0,3.51,1.57,3.51,3.51v28.4C1257.43,551.05,1255.86,552.62,1253.93,552.62z"/>
</g>
<g>
	<path class="st1" d="M1133.45,421.98h-72.16c-6.51,0-11.8-5.28-11.8-11.8v-72.16c0-6.51,5.28-11.8,11.8-11.8h72.16
		c6.51,0,11.8,5.28,11.8,11.8v72.16C1145.25,416.7,1139.97,421.98,1133.45,421.98z"/>
	<path class="st1" d="M1218.4,346.22h-39.3c-0.95,0-2.07,0.28-3.34,0.84c-1.27,0.56-2.47,1.26-3.58,2.11
		c-1.11,0.85-2.07,1.79-2.86,2.82c-0.8,1.03-1.19,2.03-1.19,2.98v38.26c0,1.06,0.33,2.11,0.99,3.14c0.66,1.03,1.5,1.98,2.51,2.82
		c1.01,0.85,2.08,1.52,3.22,2.03c1.14,0.5,2.19,0.76,3.14,0.76h40.41c0.66,0,1.19-0.53,1.19-1.19v-11.3c0-0.66-0.53-1.19-1.19-1.19
		h-34.85c-0.66,0-1.19-0.53-1.19-1.19v-24.99c0-0.66,0.53-1.19,1.19-1.19h34.85c0.66,0,1.19-0.53,1.19-1.19v-12.34
		C1219.59,346.75,1219.06,346.22,1218.4,346.22z"/>
	<path class="st1" d="M1280.45,347.41c0-0.66-0.53-1.19-1.19-1.19h-12.02c-0.66,0-1.19,0.53-1.19,1.19v20.69h-4.37h-12.24h-8.45
		c-0.66,0-1.19-0.53-1.19-1.19v-19.5c0-0.66-0.53-1.19-1.19-1.19h-11.94c-0.66,0-1.19,0.53-1.19,1.19v24.98
		c0,1.06,0.33,2.12,0.99,3.18c0.66,1.06,1.5,2,2.51,2.82c1.01,0.82,2.08,1.5,3.22,2.03c1.14,0.53,2.19,0.8,3.14,0.8h14.1h12.24h4.37
		"/>
	<path class="st1" d="M1334.18,348.96c-1.03-0.82-2.12-1.48-3.26-1.99c-1.14-0.5-2.11-0.76-2.9-0.76h-40.49
		c-0.66,0-1.19,0.53-1.19,1.19v53.38c0,0.66,0.53,1.19,1.19,1.19h40.49c0.8,0,1.76-0.25,2.9-0.76c1.14-0.5,2.23-1.17,3.26-1.99
		c1.03-0.82,1.92-1.76,2.66-2.82c0.74-1.06,1.11-2.12,1.11-3.18v-14.88c0-0.74-0.35-1.47-1.03-2.19c-0.48-0.5-0.92-1-1.32-1.51
		c-0.32-0.41-0.34-0.97-0.06-1.4c0.42-0.65,0.88-1.3,1.38-1.94c0.69-0.87,1.03-1.68,1.03-2.43v-13.92c0-1.06-0.37-2.12-1.11-3.18
		C1336.1,350.73,1335.21,349.79,1334.18,348.96z M1323.64,366.91c0,0.66-0.53,1.19-1.19,1.19h-17.35c-0.66,0-1.19,0.53-1.19,1.19
		v10.75c0,0.66,0.53,1.19,1.19,1.19h17.35c0.66,0,1.19,0.53,1.19,1.19v4.7c0,0.66-0.53,1.19-1.19,1.19h-20.61
		c-0.66,0-1.19-0.53-1.19-1.19v-26.02c0-0.66,0.53-1.19,1.19-1.19h20.61c0.66,0,1.19,0.53,1.19,1.19V366.91z"/>
	<path class="st1" d="M1394.12,346.22h-39.3c-0.95,0-2.07,0.28-3.34,0.84c-1.27,0.56-2.47,1.26-3.58,2.11
		c-1.11,0.85-2.07,1.79-2.86,2.82c-0.8,1.03-1.19,2.03-1.19,2.98v38.26c0,1.06,0.33,2.11,0.99,3.14c0.66,1.03,1.5,1.98,2.51,2.82
		c1.01,0.85,2.08,1.52,3.22,2.03c1.14,0.5,2.19,0.76,3.14,0.76h40.41c0.66,0,1.19-0.53,1.19-1.19v-11.3c0-0.66-0.53-1.19-1.19-1.19
		h-34.85c-0.66,0-1.19-0.53-1.19-1.19v-24.99c0-0.66,0.53-1.19,1.19-1.19h34.85c0.66,0,1.19-0.53,1.19-1.19v-12.34
		C1395.31,346.75,1394.78,346.22,1394.12,346.22z"/>
	<path class="st1" d="M1362.53,368.1c-0.66,0-1.19,0.53-1.19,1.19v10.75c0,0.66,0.53,1.19,1.19,1.19h28.25
		c0.66,0,1.19-0.53,1.19-1.19v-10.75c0-0.66-0.53-1.19-1.19-1.19H1362.53z"/>
	<path class="st1" d="M1452.15,348.96c-1.03-0.82-2.14-1.48-3.3-1.99c-1.17-0.5-2.15-0.76-2.94-0.76h-43.52
		c-0.66,0-1.19,0.53-1.19,1.19v53.38c0,0.66,0.53,1.19,1.19,1.19h11.94c0.66,0,1.19-0.53,1.19-1.19v-39.7
		c0-0.66,0.53-1.19,1.19-1.19h23.63c0.66,0,1.19,0.53,1.19,1.19v5.82c0,0.66-0.53,1.19-1.19,1.19h-20.37
		c-0.66,0-1.19,0.53-1.19,1.19v10.75c0,0.66,0.53,1.19,1.19,1.19h7.91c0.42,0,0.81,0.22,1.03,0.59l11.48,19.59
		c0.21,0.36,0.6,0.59,1.03,0.59h12.53c0.9,0,1.47-0.96,1.05-1.75l-9.2-17.27c-0.42-0.79,0.15-1.75,1.05-1.75
		c0.06,0,0.12,0,0.17-0.01c0.93-0.12,1.91-0.44,2.94-0.98c1.06-0.56,2.03-1.25,2.9-2.07c0.88-0.82,1.6-1.74,2.19-2.74
		c0.58-1.01,0.87-2.02,0.87-3.02v-17.42c0-1.06-0.37-2.12-1.11-3.18C1454.07,350.73,1453.18,349.79,1452.15,348.96z"/>
	<path class="st1" d="M1476.73,362.01c0.08-0.72,0.38-1.07,0.91-1.07h23.75c0.23,0,0.46,0.06,0.65,0.19
		c0.4,0.29,0.76,0.63,1.06,1.04c0.22,0.3,0.41,0.6,0.58,0.91c0.21,0.39,0.61,0.64,1.05,0.64h11.18c0.66,0,1.19-0.53,1.19-1.19v-1.36
		c0-1.75-0.2-3.51-0.6-5.29c-0.4-1.78-1.03-3.38-1.91-4.81c-0.88-1.43-1.99-2.6-3.34-3.5c-1.35-0.9-2.96-1.35-4.81-1.35h-31.9
		c-1.8,0-3.45,0.29-4.93,0.88c-1.49,0.58-2.76,1.31-3.82,2.19c-1.06,0.87-1.88,1.83-2.47,2.86c-0.58,1.03-0.87,1.98-0.87,2.82v17.5
		c0,0.9,0.42,1.86,1.27,2.86c0.85,1.01,1.86,1.95,3.02,2.82c1.17,0.88,2.37,1.6,3.62,2.19c1.25,0.58,2.24,0.88,2.98,0.88h28.48
		c0.48,0,0.8,0.24,0.95,0.72c0.16,0.48,0.24,0.98,0.24,1.51v2.94c0,0.43-0.05,0.85-0.16,1.27c-0.11,0.42-0.45,0.64-1.03,0.64h-23.75
		c-0.23,0-0.46-0.06-0.65-0.19c-0.53-0.36-0.89-0.74-1.09-1.12c-0.13-0.25-0.27-0.51-0.42-0.77c-0.21-0.38-0.61-0.62-1.04-0.62
		h-11.83c-0.68,0-1.23,0.57-1.19,1.24c0.06,1.2,0.21,2.5,0.44,3.89c0.32,1.88,0.88,3.66,1.67,5.33c0.8,1.67,1.88,3.08,3.26,4.22
		c1.38,1.14,3.1,1.71,5.17,1.71h34.05c1.38,0,2.72-0.24,4.02-0.72c1.3-0.48,2.44-1.11,3.42-1.91c0.98-0.8,1.76-1.72,2.35-2.78
		c0.58-1.06,0.88-2.17,0.88-3.34v-16.39c0-0.74-0.31-1.62-0.91-2.62c-0.61-1.01-1.35-1.96-2.23-2.86c-0.88-0.9-1.8-1.67-2.78-2.31
		c-0.98-0.64-1.87-0.95-2.66-0.95h-29.51c-0.58,0-1.03-0.13-1.35-0.4c-0.32-0.27-0.56-0.6-0.72-0.99c-0.16-0.4-0.25-0.81-0.28-1.23
		c-0.03-0.42-0.04-0.8-0.04-1.11v-0.64C1476.61,363.3,1476.65,362.73,1476.73,362.01z"/>
	<g>
		<path class="st2" d="M1109.83,334.3h-40.83c-0.99,0-2.15,0.29-3.47,0.87c-1.32,0.58-2.56,1.31-3.72,2.19
			c-1.16,0.88-2.15,1.86-2.97,2.93c-0.83,1.07-1.24,2.11-1.24,3.1v39.75c0,1.1,0.34,2.19,1.03,3.26c0.69,1.07,1.56,2.05,2.6,2.93
			c1.05,0.88,2.16,1.58,3.35,2.11c1.18,0.52,2.27,0.79,3.26,0.79h41.98c0.68,0,1.24-0.55,1.24-1.24v-11.74
			c0-0.68-0.55-1.24-1.24-1.24h-36.2c-0.68,0-1.23-0.55-1.23-1.24v-25.96c0-0.68,0.55-1.24,1.23-1.24h36.2
			c0.68,0,1.24-0.55,1.24-1.24v-12.82C1111.07,334.86,1110.52,334.3,1109.83,334.3z"/>
		<path class="st2" d="M1130.69,349.89h-8.05c-2.06,0-3.73-1.67-3.73-3.73v-8.05c0-2.06,1.67-3.73,3.73-3.73h8.05
			c2.06,0,3.73,1.67,3.73,3.73v8.05C1134.42,348.22,1132.75,349.89,1130.69,349.89z"/>
		<path class="st2" d="M1082.19,413.9h40.83c0.99,0,2.15-0.29,3.47-0.87c1.32-0.58,2.56-1.31,3.72-2.19
			c1.16-0.88,2.15-1.86,2.97-2.93c0.83-1.07,1.24-2.11,1.24-3.1v-39.75c0-1.1-0.34-2.19-1.03-3.26c-0.69-1.07-1.56-2.05-2.6-2.93
			c-1.05-0.88-2.16-1.58-3.35-2.11c-1.18-0.52-2.27-0.79-3.26-0.79h-41.98c-0.68,0-1.24,0.55-1.24,1.24v11.74
			c0,0.68,0.55,1.24,1.24,1.24h36.2c0.68,0,1.23,0.55,1.23,1.24v25.96c0,0.68-0.55,1.24-1.23,1.24h-36.2
			c-0.68,0-1.24,0.55-1.24,1.24v12.82C1080.96,413.35,1081.51,413.9,1082.19,413.9z"/>
		<path class="st2" d="M1069.38,413.9h-8.05c-2.06,0-3.73-1.67-3.73-3.73v-8.05c0-2.06,1.67-3.73,3.73-3.73h8.05
			c2.06,0,3.73,1.67,3.73,3.73v8.05C1073.11,412.23,1071.44,413.9,1069.38,413.9z"/>
	</g>
	<path class="st1" d="M1225.48,347.41c0-0.66,0.53-1.19,1.19-1.19h12.02c0.66,0,1.19,0.53,1.19,1.19v20.69h4.37h12.24h8.45
		c0.66,0,1.19-0.53,1.19-1.19v-19.5c0-0.66,0.53-1.19,1.19-1.19h11.94c0.66,0,1.19,0.53,1.19,1.19v24.98c0,1.06-0.33,2.12-0.99,3.18
		c-0.66,1.06-1.5,2-2.51,2.82c-1.01,0.82-2.08,1.5-3.22,2.03c-1.14,0.53-2.19,0.8-3.14,0.8h-14.1h-12.24h-4.37"/>
	<path class="st1" d="M1256.97,403.51h-7.1c-1.94,0-3.51-1.57-3.51-3.51v-28.4c0-1.94,1.57-3.51,3.51-3.51h7.1
		c1.94,0,3.51,1.57,3.51,3.51V400C1260.47,401.94,1258.9,403.51,1256.97,403.51z"/>
</g>
<g>
	<path class="st2" d="M440.72,113.5H336.8c-2.52,0-5.47,0.74-8.83,2.21c-3.37,1.47-6.52,3.33-9.47,5.57
		c-2.94,2.24-5.47,4.73-7.57,7.47c-2.1,2.73-3.15,5.36-3.15,7.89v101.17c0,2.81,0.87,5.57,2.63,8.31c1.75,2.73,3.96,5.23,6.63,7.47
		c2.66,2.24,5.5,4.03,8.52,5.36c3.01,1.34,5.78,2,8.31,2h106.86c1.74,0,3.14-1.41,3.14-3.14v-29.89c0-1.74-1.41-3.14-3.14-3.14
		h-92.15c-1.74,0-3.14-1.41-3.14-3.14v-66.07c0-1.74,1.41-3.14,3.14-3.14h92.15c1.74,0,3.14-1.41,3.14-3.14v-32.62
		C443.86,114.91,442.45,113.5,440.72,113.5z"/>
	<path class="st2" d="M499.58,153.18h-32c-2.06,0-3.73-1.67-3.73-3.73v-32c0-2.06,1.67-3.73,3.73-3.73h32
		c2.06,0,3.73,1.67,3.73,3.73v32C503.3,151.51,501.63,153.18,499.58,153.18z"/>
	<path class="st2" d="M370.36,316.1h103.91c2.52,0,5.47-0.74,8.83-2.21c3.37-1.47,6.52-3.33,9.47-5.57
		c2.94-2.24,5.47-4.73,7.57-7.47c2.1-2.73,3.15-5.36,3.15-7.89V191.8c0-2.81-0.87-5.57-2.63-8.31c-1.75-2.73-3.96-5.23-6.63-7.47
		c-2.66-2.24-5.5-4.03-8.52-5.36c-3.01-1.34-5.78-2-8.31-2H370.36c-1.74,0-3.14,1.41-3.14,3.14v29.89c0,1.74,1.41,3.14,3.14,3.14
		h92.15c1.74,0,3.14,1.41,3.14,3.14v66.07c0,1.74-1.41,3.14-3.14,3.14h-92.15c-1.74,0-3.14,1.41-3.14,3.14v32.62
		C367.22,314.69,368.63,316.1,370.36,316.1z"/>
	<path class="st2" d="M343.51,316.1h-32c-2.06,0-3.73-1.67-3.73-3.73v-32c0-2.06,1.67-3.73,3.73-3.73h32c2.06,0,3.73,1.67,3.73,3.73
		v32C347.24,314.43,345.57,316.1,343.51,316.1z"/>
</g>
<path d="M506.52,336.67H311.48c-13.44,0-24.34-10.9-24.34-24.34V117.28c0-13.44,10.9-24.34,24.34-24.34h195.04
	c13.44,0,24.34,10.9,24.34,24.34v195.04C530.86,325.77,519.96,336.67,506.52,336.67z"/>
<g>
	<path class="st2" d="M440.72,113.5H336.8c-2.52,0-5.47,0.74-8.83,2.21c-3.37,1.47-6.52,3.33-9.47,5.57
		c-2.94,2.24-5.47,4.73-7.57,7.47c-2.1,2.73-3.15,5.36-3.15,7.89v101.17c0,2.81,0.87,5.57,2.63,8.31c1.75,2.73,3.96,5.23,6.63,7.47
		c2.66,2.24,5.5,4.03,8.52,5.36c3.01,1.34,5.78,2,8.31,2h106.86c1.74,0,3.14-1.41,3.14-3.14v-29.89c0-1.74-1.41-3.14-3.14-3.14
		h-92.15c-1.74,0-3.14-1.41-3.14-3.14v-66.07c0-1.74,1.41-3.14,3.14-3.14h92.15c1.74,0,3.14-1.41,3.14-3.14v-32.62
		C443.86,114.91,442.45,113.5,440.72,113.5z"/>
	<path class="st2" d="M499.58,153.18h-32c-2.06,0-3.73-1.67-3.73-3.73v-32c0-2.06,1.67-3.73,3.73-3.73h32
		c2.06,0,3.73,1.67,3.73,3.73v32C503.3,151.51,501.63,153.18,499.58,153.18z"/>
	<path class="st2" d="M370.36,316.1h103.91c2.52,0,5.47-0.74,8.83-2.21c3.37-1.47,6.52-3.33,9.47-5.57
		c2.94-2.24,5.47-4.73,7.57-7.47c2.1-2.73,3.15-5.36,3.15-7.89V191.8c0-2.81-0.87-5.57-2.63-8.31c-1.75-2.73-3.96-5.23-6.63-7.47
		c-2.66-2.24-5.5-4.03-8.52-5.36c-3.01-1.34-5.78-2-8.31-2H370.36c-1.74,0-3.14,1.41-3.14,3.14v29.89c0,1.74,1.41,3.14,3.14,3.14
		h92.15c1.74,0,3.14,1.41,3.14,3.14v66.07c0,1.74-1.41,3.14-3.14,3.14h-92.15c-1.74,0-3.14,1.41-3.14,3.14v32.62
		C367.22,314.69,368.63,316.1,370.36,316.1z"/>
	<path class="st2" d="M343.51,316.1h-32c-2.06,0-3.73-1.67-3.73-3.73v-32c0-2.06,1.67-3.73,3.73-3.73h32c2.06,0,3.73,1.67,3.73,3.73
		v32C347.24,314.43,345.57,316.1,343.51,316.1z"/>
</g>
<g>
	<path class="st2" d="M455.03-518.4H351.11c-2.52,0-5.47,0.74-8.83,2.21c-3.37,1.47-6.52,3.33-9.47,5.57
		c-2.94,2.24-5.47,4.73-7.57,7.47c-2.1,2.73-3.15,5.36-3.15,7.89v101.17c0,2.81,0.87,5.57,2.63,8.31c1.75,2.73,3.96,5.23,6.63,7.47
		c2.66,2.24,5.5,4.03,8.52,5.36c3.01,1.34,5.78,2,8.31,2h106.86c1.74,0,3.14-1.41,3.14-3.14v-29.89c0-1.74-1.41-3.14-3.14-3.14
		h-92.15c-1.74,0-3.14-1.41-3.14-3.14v-66.07c0-1.74,1.41-3.14,3.14-3.14h92.15c1.74,0,3.14-1.41,3.14-3.14v-32.62
		C458.17-517,456.76-518.4,455.03-518.4z"/>
	<path class="st2" d="M513.89-478.72h-32c-2.06,0-3.73-1.67-3.73-3.73v-32c0-2.06,1.67-3.73,3.73-3.73h32
		c2.06,0,3.73,1.67,3.73,3.73v32C517.61-480.39,515.94-478.72,513.89-478.72z"/>
	<path class="st2" d="M384.67-315.8h103.91c2.52,0,5.47-0.74,8.83-2.21c3.37-1.47,6.52-3.33,9.47-5.57
		c2.94-2.24,5.47-4.73,7.57-7.47c2.1-2.73,3.15-5.36,3.15-7.89v-101.17c0-2.81-0.87-5.57-2.63-8.31c-1.75-2.73-3.96-5.23-6.63-7.47
		c-2.66-2.24-5.5-4.03-8.52-5.36c-3.01-1.33-5.78-2-8.31-2H384.67c-1.74,0-3.14,1.41-3.14,3.14v29.89c0,1.74,1.41,3.14,3.14,3.14
		h92.15c1.74,0,3.14,1.41,3.14,3.14v66.07c0,1.74-1.41,3.14-3.14,3.14h-92.15c-1.74,0-3.14,1.41-3.14,3.14v32.62
		C381.53-317.21,382.94-315.8,384.67-315.8z"/>
	<path class="st2" d="M357.82-315.8h-32c-2.06,0-3.73-1.67-3.73-3.73v-32c0-2.06,1.67-3.73,3.73-3.73h32c2.06,0,3.73,1.67,3.73,3.73
		v32C361.55-317.47,359.88-315.8,357.82-315.8z"/>
</g>
<path class="st2" d="M520.83-295.24H325.79c-13.44,0-24.34-10.9-24.34-24.34v-195.04c0-13.44,10.9-24.34,24.34-24.34h195.04
	c13.44,0,24.34,10.9,24.34,24.34v195.04C545.17-306.14,534.27-295.24,520.83-295.24z"/>
<g>
	<path class="st0" d="M455.03-518.4H351.11c-2.52,0-5.47,0.74-8.83,2.21c-3.37,1.47-6.52,3.33-9.47,5.57
		c-2.94,2.24-5.47,4.73-7.57,7.47c-2.1,2.73-3.15,5.36-3.15,7.89v101.17c0,2.81,0.87,5.57,2.63,8.31c1.75,2.73,3.96,5.23,6.63,7.47
		c2.66,2.24,5.5,4.03,8.52,5.36c3.01,1.34,5.78,2,8.31,2h106.86c1.74,0,3.14-1.41,3.14-3.14v-29.89c0-1.74-1.41-3.14-3.14-3.14
		h-92.15c-1.74,0-3.14-1.41-3.14-3.14v-66.07c0-1.74,1.41-3.14,3.14-3.14h92.15c1.74,0,3.14-1.41,3.14-3.14v-32.62
		C458.17-517,456.76-518.4,455.03-518.4z"/>
	<path class="st0" d="M513.89-478.72h-32c-2.06,0-3.73-1.67-3.73-3.73v-32c0-2.06,1.67-3.73,3.73-3.73h32
		c2.06,0,3.73,1.67,3.73,3.73v32C517.61-480.39,515.94-478.72,513.89-478.72z"/>
	<path class="st0" d="M384.67-315.8h103.91c2.52,0,5.47-0.74,8.83-2.21c3.37-1.47,6.52-3.33,9.47-5.57
		c2.94-2.24,5.47-4.73,7.57-7.47c2.1-2.73,3.15-5.36,3.15-7.89v-101.17c0-2.81-0.87-5.57-2.63-8.31c-1.75-2.73-3.96-5.23-6.63-7.47
		c-2.66-2.24-5.5-4.03-8.52-5.36c-3.01-1.33-5.78-2-8.31-2H384.67c-1.74,0-3.14,1.41-3.14,3.14v29.89c0,1.74,1.41,3.14,3.14,3.14
		h92.15c1.74,0,3.14,1.41,3.14,3.14v66.07c0,1.74-1.41,3.14-3.14,3.14h-92.15c-1.74,0-3.14,1.41-3.14,3.14v32.62
		C381.53-317.21,382.94-315.8,384.67-315.8z"/>
	<path class="st0" d="M357.82-315.8h-32c-2.06,0-3.73-1.67-3.73-3.73v-32c0-2.06,1.67-3.73,3.73-3.73h32c2.06,0,3.73,1.67,3.73,3.73
		v32C361.55-317.47,359.88-315.8,357.82-315.8z"/>
</g>
<rect x="1723.78" class="st4" width="841.89" height="595.28"/>
<path class="st3" d="M1920.23,391.63h-75.25c-1.83,0-3.96,0.53-6.4,1.6c-2.44,1.07-4.72,2.41-6.85,4.04
	c-2.13,1.62-3.96,3.43-5.48,5.41c-1.52,1.98-2.28,3.88-2.28,5.71v73.26c0,2.03,0.63,4.04,1.9,6.02c1.27,1.98,2.87,3.78,4.8,5.41
	c1.93,1.62,3.98,2.92,6.17,3.88c2.18,0.97,4.19,1.45,6.02,1.45h77.39c1.26,0,2.28-1.02,2.28-2.28v-21.65c0-1.26-1.02-2.28-2.28-2.28
	h-66.73c-1.26,0-2.28-1.02-2.28-2.28v-47.84c0-1.26,1.02-2.28,2.28-2.28h66.73c1.26,0,2.28-1.02,2.28-2.28V393.9
	C1922.51,392.65,1921.49,391.63,1920.23,391.63z"/>
<path class="st3" d="M2141.92,396.88c-1.98-1.57-4.06-2.84-6.25-3.81c-2.18-0.96-4.04-1.45-5.56-1.45h-77.54
	c-1.26,0-2.28,1.02-2.28,2.28v102.22c0,1.26,1.02,2.28,2.28,2.28h77.54c1.52,0,3.38-0.48,5.56-1.45c2.18-0.96,4.26-2.23,6.25-3.81
	c1.98-1.57,3.68-3.38,5.1-5.41c1.42-2.03,2.13-4.06,2.13-6.09v-28.48c0-1.42-0.66-2.82-1.98-4.19c-0.92-0.95-1.76-1.91-2.53-2.89
	c-0.61-0.78-0.66-1.85-0.12-2.69c0.8-1.25,1.69-2.49,2.65-3.72c1.32-1.67,1.98-3.22,1.98-4.65v-26.66c0-2.03-0.71-4.06-2.13-6.09
	C2145.6,400.26,2143.9,398.46,2141.92,396.88z M2121.74,431.24c0,1.26-1.02,2.28-2.28,2.28h-33.22c-1.26,0-2.28,1.02-2.28,2.28
	v20.58c0,1.26,1.02,2.28,2.28,2.28h33.22c1.26,0,2.28,1.02,2.28,2.28v9c0,1.26-1.02,2.28-2.28,2.28h-39.47
	c-1.26,0-2.28-1.02-2.28-2.28V420.1c0-1.26,1.02-2.28,2.28-2.28h39.47c1.26,0,2.28,1.02,2.28,2.28V431.24z"/>
<path class="st3" d="M2256.7,391.63h-75.25c-1.83,0-3.96,0.53-6.4,1.6c-2.44,1.07-4.72,2.41-6.85,4.04
	c-2.13,1.62-3.96,3.43-5.48,5.41c-1.52,1.98-2.28,3.88-2.28,5.71v73.26c0,2.03,0.63,4.04,1.9,6.02c1.27,1.98,2.87,3.78,4.8,5.41
	c1.93,1.62,3.98,2.92,6.17,3.88c2.18,0.97,4.19,1.45,6.02,1.45h77.39c1.26,0,2.28-1.02,2.28-2.28v-21.65c0-1.26-1.02-2.28-2.28-2.28
	h-66.73c-1.26,0-2.28-1.02-2.28-2.28v-47.84c0-1.26,1.02-2.28,2.28-2.28h66.73c1.26,0,2.28-1.02,2.28-2.28V393.9
	C2258.98,392.65,2257.96,391.63,2256.7,391.63z"/>
<path class="st3" d="M2196.21,433.51c-1.26,0-2.28,1.02-2.28,2.28v20.58c0,1.26,1.02,2.28,2.28,2.28h54.09
	c1.26,0,2.28-1.02,2.28-2.28v-20.58c0-1.26-1.02-2.28-2.28-2.28H2196.21z"/>
<path class="st3" d="M2367.81,396.88c-1.98-1.57-4.09-2.84-6.32-3.81c-2.23-0.96-4.11-1.45-5.64-1.45h-83.33
	c-1.26,0-2.28,1.02-2.28,2.28v102.22c0,1.26,1.02,2.28,2.28,2.28h22.86c1.26,0,2.28-1.02,2.28-2.28V420.1
	c0-1.26,1.02-2.28,2.28-2.28h45.26c1.26,0,2.28,1.02,2.28,2.28v11.14c0,1.26-1.02,2.28-2.28,2.28h-39.01
	c-1.26,0-2.28,1.02-2.28,2.28v20.58c0,1.26,1.02,2.28,2.28,2.28h15.15c0.81,0,1.56,0.43,1.96,1.13l21.99,37.5
	c0.41,0.7,1.16,1.13,1.96,1.13h24c1.72,0,2.82-1.83,2.01-3.35l-17.61-33.06c-0.81-1.52,0.29-3.35,2.01-3.35
	c0.11,0,0.22-0.01,0.33-0.02c1.78-0.22,3.65-0.85,5.62-1.88c2.03-1.07,3.88-2.38,5.56-3.96c1.68-1.57,3.07-3.33,4.19-5.25
	c1.12-1.93,1.68-3.86,1.68-5.79v-33.36c0-2.03-0.71-4.06-2.13-6.09C2371.48,400.26,2369.79,398.46,2367.81,396.88z"/>
<path class="st3" d="M2414.87,421.86c0.15-1.37,0.74-2.06,1.75-2.06h45.47c0.44,0,0.89,0.12,1.25,0.37
	c0.77,0.55,1.45,1.21,2.02,1.99c0.42,0.57,0.79,1.16,1.1,1.75c0.4,0.75,1.16,1.22,2.01,1.22h21.42c1.26,0,2.28-1.02,2.28-2.28v-2.6
	c0-3.35-0.38-6.73-1.14-10.13c-0.76-3.4-1.98-6.47-3.66-9.22c-1.68-2.74-3.81-4.97-6.4-6.7c-2.59-1.73-5.66-2.59-9.22-2.59h-61.08
	c-3.45,0-6.6,0.56-9.44,1.68c-2.84,1.12-5.28,2.51-7.31,4.19c-2.03,1.67-3.61,3.5-4.72,5.48c-1.12,1.98-1.68,3.78-1.68,5.41v33.51
	c0,1.73,0.81,3.56,2.44,5.48c1.62,1.93,3.55,3.73,5.79,5.41c2.23,1.68,4.54,3.07,6.93,4.19c2.38,1.12,4.29,1.68,5.71,1.68h54.53
	c0.91,0,1.52,0.46,1.83,1.37c0.3,0.91,0.46,1.88,0.46,2.89v5.64c0,0.81-0.1,1.63-0.3,2.44c-0.2,0.81-0.86,1.22-1.98,1.22h-45.47
	c-0.44,0-0.88-0.12-1.25-0.37c-1.01-0.7-1.71-1.41-2.09-2.14c-0.26-0.49-0.52-0.98-0.8-1.48c-0.4-0.73-1.17-1.18-2-1.18h-22.66
	c-1.3,0-2.35,1.08-2.28,2.38c0.12,2.3,0.4,4.78,0.85,7.44c0.61,3.61,1.68,7.01,3.2,10.21c1.52,3.2,3.6,5.89,6.24,8.07
	c2.64,2.18,5.94,3.27,9.9,3.27h65.19c2.64,0,5.2-0.46,7.69-1.37c2.49-0.91,4.67-2.13,6.55-3.66c1.88-1.52,3.37-3.3,4.49-5.33
	c1.12-2.03,1.68-4.16,1.68-6.4v-31.38c0-1.42-0.59-3.1-1.75-5.03c-1.17-1.93-2.59-3.75-4.26-5.48c-1.68-1.73-3.45-3.2-5.33-4.42
	c-1.88-1.22-3.58-1.83-5.1-1.83h-56.51c-1.12,0-1.98-0.25-2.59-0.76c-0.61-0.51-1.07-1.14-1.37-1.9s-0.48-1.55-0.53-2.36
	c-0.05-0.81-0.08-1.52-0.08-2.13v-1.22C2414.64,424.33,2414.72,423.23,2414.87,421.86z"/>
<path class="st2" d="M2037.45,392.98c-0.34-0.8-1.12-1.35-2.04-1.35h0h-22.25h-0.15c-1.22,0-2.22,0.99-2.22,2.22v37.12
	c-0.32,0.84-1.12,1.44-2.07,1.44h-6.08h-5.75h-3.93h-13.13h-2.24h-7.43h-6.08c-0.95,0-1.75-0.6-2.07-1.44v-37.12
	c0-1.22-0.99-2.22-2.22-2.22h-0.15h-22.25h0c-0.92,0-1.71,0.56-2.04,1.35c-0.11,0.27-0.17,0.56-0.17,0.86v46.56
	c0,1.98,0.62,3.95,1.85,5.93c1.23,1.98,2.79,3.73,4.67,5.26c1.88,1.53,3.88,2.79,6,3.78c2.12,0.99,4.08,1.48,5.86,1.48h8.45h8.15
	h3.93v38.03c0,1.94,1.57,3.51,3.51,3.51h19.3c1.94,0,3.51-1.57,3.51-3.51v-38.03h2.25h8.15h8.45c1.78,0,3.73-0.49,5.86-1.48
	c2.13-0.99,4.13-2.25,6-3.78c1.88-1.53,3.44-3.29,4.67-5.26c1.24-1.98,1.85-3.95,1.85-5.93v-46.56
	C2037.63,393.54,2037.57,393.25,2037.45,392.98z"/>
<g>
	<path class="st2" d="M2192.15,117.44h-103.91c-2.52,0-5.47,0.74-8.83,2.21c-3.36,1.47-6.52,3.33-9.47,5.57
		c-2.94,2.24-5.47,4.73-7.57,7.47c-2.1,2.73-3.15,5.36-3.15,7.89v101.17c0,2.81,0.87,5.57,2.63,8.31c1.75,2.73,3.96,5.23,6.63,7.47
		c2.66,2.24,5.5,4.03,8.52,5.36c3.01,1.34,5.78,2,8.31,2h106.86c1.74,0,3.14-1.41,3.14-3.14v-29.89c0-1.74-1.41-3.14-3.14-3.14H2100
		c-1.74,0-3.14-1.41-3.14-3.14v-66.07c0-1.74,1.41-3.14,3.14-3.14h92.15c1.74,0,3.14-1.41,3.14-3.14v-32.62
		C2195.29,118.85,2193.88,117.44,2192.15,117.44z"/>
	<path class="st2" d="M2251.01,157.12h-32c-2.06,0-3.73-1.67-3.73-3.73v-32c0-2.06,1.67-3.73,3.73-3.73h32
		c2.06,0,3.73,1.67,3.73,3.73v32C2254.73,155.45,2253.06,157.12,2251.01,157.12z"/>
	<path class="st2" d="M2121.79,320.04h103.91c2.52,0,5.47-0.74,8.83-2.21c3.37-1.47,6.52-3.33,9.47-5.57
		c2.94-2.24,5.47-4.73,7.57-7.47c2.1-2.73,3.15-5.36,3.15-7.89V195.73c0-2.81-0.87-5.57-2.63-8.31c-1.75-2.73-3.96-5.23-6.63-7.47
		c-2.66-2.24-5.5-4.03-8.52-5.36c-3.01-1.34-5.78-2-8.31-2h-106.86c-1.74,0-3.14,1.41-3.14,3.14v29.89c0,1.74,1.41,3.14,3.14,3.14
		h92.15c1.74,0,3.14,1.41,3.14,3.14v66.07c0,1.74-1.41,3.14-3.14,3.14h-92.15c-1.74,0-3.14,1.41-3.14,3.14v32.62
		C2118.65,318.63,2120.06,320.04,2121.79,320.04z"/>
	<path class="st2" d="M2094.94,320.04h-32c-2.06,0-3.73-1.67-3.73-3.73v-32c0-2.06,1.67-3.73,3.73-3.73h32
		c2.06,0,3.73,1.67,3.73,3.73v32C2098.67,318.37,2097,320.04,2094.94,320.04z"/>
</g>
<path class="st2" d="M2257.95,340.6h-195.04c-13.44,0-24.34-10.9-24.34-24.34V121.22c0-13.44,10.9-24.34,24.34-24.34h195.04
	c13.44,0,24.34,10.9,24.34,24.34v195.04C2282.29,329.7,2271.39,340.6,2257.95,340.6z"/>
<g>
	<path class="st4" d="M2192.15,117.44h-103.91c-2.52,0-5.47,0.74-8.83,2.21c-3.36,1.47-6.52,3.33-9.47,5.57
		c-2.94,2.24-5.47,4.73-7.57,7.47c-2.1,2.73-3.15,5.36-3.15,7.89v101.17c0,2.81,0.87,5.57,2.63,8.31c1.75,2.73,3.96,5.23,6.63,7.47
		c2.66,2.24,5.5,4.03,8.52,5.36c3.01,1.34,5.78,2,8.31,2h106.86c1.74,0,3.14-1.41,3.14-3.14v-29.89c0-1.74-1.41-3.14-3.14-3.14H2100
		c-1.74,0-3.14-1.41-3.14-3.14v-66.07c0-1.74,1.41-3.14,3.14-3.14h92.15c1.74,0,3.14-1.41,3.14-3.14v-32.62
		C2195.29,118.85,2193.88,117.44,2192.15,117.44z"/>
	<path class="st4" d="M2251.01,157.12h-32c-2.06,0-3.73-1.67-3.73-3.73v-32c0-2.06,1.67-3.73,3.73-3.73h32
		c2.06,0,3.73,1.67,3.73,3.73v32C2254.73,155.45,2253.06,157.12,2251.01,157.12z"/>
	<path class="st4" d="M2121.79,320.04h103.91c2.52,0,5.47-0.74,8.83-2.21c3.37-1.47,6.52-3.33,9.47-5.57
		c2.94-2.24,5.47-4.73,7.57-7.47c2.1-2.73,3.15-5.36,3.15-7.89V195.73c0-2.81-0.87-5.57-2.63-8.31c-1.75-2.73-3.96-5.23-6.63-7.47
		c-2.66-2.24-5.5-4.03-8.52-5.36c-3.01-1.34-5.78-2-8.31-2h-106.86c-1.74,0-3.14,1.41-3.14,3.14v29.89c0,1.74,1.41,3.14,3.14,3.14
		h92.15c1.74,0,3.14,1.41,3.14,3.14v66.07c0,1.74-1.41,3.14-3.14,3.14h-92.15c-1.74,0-3.14,1.41-3.14,3.14v32.62
		C2118.65,318.63,2120.06,320.04,2121.79,320.04z"/>
	<path class="st4" d="M2094.94,320.04h-32c-2.06,0-3.73-1.67-3.73-3.73v-32c0-2.06,1.67-3.73,3.73-3.73h32
		c2.06,0,3.73,1.67,3.73,3.73v32C2098.67,318.37,2097,320.04,2094.94,320.04z"/>
</g>
</svg>
